<?xml version="1.0" standalone="no"?>
<!DOCTYPE svg PUBLIC "-//W3C//DTD SVG 20010904//EN"
 "http://www.w3.org/TR/2001/REC-SVG-20010904/DTD/svg10.dtd">
<svg version="1.0" xmlns="http://www.w3.org/2000/svg"
 width="618.000000pt" height="848.000000pt" viewBox="0 0 618.000000 848.000000"
 preserveAspectRatio="xMidYMid meet">

<g transform="translate(0.000000,848.000000) scale(0.100000,-0.100000)"
fill="#000000" stroke="none">
<path d="M4044 8466 c-3 -8 -12 -12 -20 -9 -7 3 -16 -2 -20 -10 -3 -9 -11 -14
-18 -11 -7 3 -21 -7 -32 -21 -10 -14 -26 -25 -34 -25 -8 0 -23 -11 -34 -24
-10 -14 -24 -22 -31 -20 -7 3 -15 -2 -18 -10 -4 -9 -13 -16 -20 -16 -8 0 -22
-9 -32 -20 -10 -11 -24 -20 -32 -20 -7 0 -16 -6 -19 -14 -3 -8 -12 -12 -20 -9
-7 3 -16 -2 -20 -10 -3 -9 -11 -14 -18 -11 -7 3 -21 -7 -32 -21 -10 -14 -26
-25 -34 -25 -8 0 -24 -11 -34 -25 -10 -13 -23 -22 -28 -19 -5 3 -18 -6 -29
-20 -11 -14 -27 -26 -34 -26 -7 0 -23 -12 -34 -26 -11 -14 -24 -23 -29 -20 -5
3 -18 -6 -28 -19 -10 -14 -27 -25 -36 -25 -10 0 -18 -4 -18 -10 0 -5 -7 -10
-16 -10 -8 0 -27 -14 -41 -30 -14 -17 -44 -39 -67 -50 -22 -10 -48 -28 -56
-39 -8 -12 -22 -21 -32 -21 -10 0 -18 -4 -18 -10 0 -5 -4 -10 -10 -10 -5 0
-10 6 -10 14 0 13 -28 26 -57 26 -24 0 -13 -28 12 -34 44 -11 31 -41 -29 -71
-42 -21 -62 -25 -90 -19 l-37 6 7 -41 c5 -34 4 -41 -10 -41 -9 0 -19 7 -22 15
-9 22 -24 8 -24 -21 0 -27 -94 -134 -117 -134 -18 0 -16 35 3 51 12 10 14 23
9 61 -6 44 -5 48 14 48 25 0 27 13 6 38 -51 57 -65 76 -65 83 0 4 -7 15 -16
24 -15 15 -18 13 -39 -15 -14 -19 -26 -27 -30 -21 -8 14 4 33 16 26 5 -4 9 6
9 22 0 37 10 50 40 54 21 3 26 10 28 40 3 33 0 37 -25 42 -35 6 -43 2 -43 -26
0 -26 -8 -38 -35 -53 -11 -6 -25 -21 -31 -33 -6 -12 -20 -32 -31 -45 -14 -16
-18 -32 -15 -62 l5 -39 -25 25 c-21 22 -24 33 -23 95 2 87 -9 119 -36 102 -11
-7 -19 -18 -19 -26 0 -11 -3 -12 -11 -4 -9 9 -8 16 5 28 9 9 16 23 16 31 0 8
4 14 10 14 15 0 24 70 11 83 -9 9 -14 8 -22 -5 -5 -9 -16 -15 -23 -12 -7 3
-16 -2 -20 -11 -3 -10 -13 -15 -20 -12 -8 3 -17 -1 -20 -9 -3 -8 -12 -14 -20
-14 -8 0 -28 -16 -45 -35 -17 -19 -33 -35 -37 -35 -3 0 -14 10 -24 23 -19 22
-19 22 -34 2 -13 -17 -15 -17 -16 -4 0 25 -70 44 -70 19 0 -5 -9 -10 -20 -10
-11 0 -20 -4 -20 -10 0 -5 -13 -10 -29 -10 -16 0 -31 -6 -34 -12 -10 -30 -22
9 -20 67 1 57 -1 64 -21 69 -12 3 -26 19 -33 36 -8 23 -18 30 -37 30 -15 0
-30 8 -36 20 -12 22 -64 28 -76 9 -3 -6 -15 -8 -26 -6 -14 4 -22 -1 -28 -19
-6 -15 -17 -24 -31 -24 -26 0 -117 -92 -125 -127 -4 -14 -13 -22 -22 -21 -9 2
-18 -5 -20 -16 -2 -10 -12 -28 -22 -38 -25 -27 -69 -14 -83 23 -9 24 -19 29
-71 38 -34 6 -66 17 -72 25 -5 8 -23 18 -39 22 -18 4 -32 17 -39 35 -9 25 -17
30 -59 35 -27 4 -56 15 -65 25 -11 11 -50 23 -112 33 -52 9 -105 18 -116 21
-17 4 -23 -1 -28 -20 -4 -14 -11 -25 -17 -25 -7 0 -9 10 -5 25 5 21 2 26 -21
31 -16 4 -36 15 -46 25 -24 25 -38 23 -61 -8 -26 -36 -12 -74 32 -87 28 -8 46
-36 23 -36 -18 0 -20 -32 -5 -62 10 -19 14 -42 10 -61 -5 -26 -1 -35 24 -58
18 -17 30 -38 30 -53 0 -18 6 -25 23 -28 20 -3 22 -8 19 -55 -4 -63 10 -93 43
-93 15 0 26 -7 30 -20 3 -11 15 -20 26 -20 11 0 24 -11 31 -24 9 -20 7 -28 -6
-41 -22 -23 -130 -12 -149 15 -8 12 -40 22 -102 33 -49 8 -92 13 -94 11 -2 -1
-6 -18 -10 -35 -9 -43 -26 -47 -45 -10 -9 16 -24 32 -35 36 -11 3 -22 12 -25
20 -6 17 -56 21 -56 4 0 -5 5 -42 12 -80 9 -59 15 -72 35 -80 28 -10 28 -10 3
-55 -18 -34 -18 -39 -3 -68 9 -17 29 -44 45 -61 16 -16 36 -42 44 -57 8 -16
19 -28 24 -28 6 0 10 -7 10 -15 0 -8 9 -15 20 -15 12 0 36 -15 55 -34 19 -19
44 -37 57 -41 13 -4 36 -21 52 -38 26 -28 28 -35 21 -81 -3 -27 -12 -54 -20
-60 -7 -6 -16 -32 -20 -58 -5 -37 -10 -48 -24 -48 -19 0 -31 -35 -31 -86 0
-12 -6 -29 -14 -37 -8 -8 -20 -43 -26 -78 -6 -35 -13 -74 -15 -87 -4 -15 0
-24 12 -29 10 -3 32 -21 50 -39 32 -34 53 -43 53 -23 0 6 8 9 17 7 12 -2 18
-13 18 -28 0 -18 6 -26 23 -28 18 -3 23 -9 20 -30 -5 -39 -26 -38 -43 2 -9 20
-19 36 -23 36 -4 0 -23 -16 -42 -36 -32 -34 -36 -36 -81 -30 -29 4 -50 2 -54
-4 -10 -16 -43 -12 -54 7 -14 25 -19 14 -13 -29 2 -24 10 -38 18 -38 8 0 14
-7 14 -15 0 -9 -9 -15 -22 -15 -29 -1 -62 -25 -53 -39 3 -6 15 -11 26 -11 10
0 19 -7 19 -15 0 -8 -7 -15 -16 -15 -17 0 -44 -23 -44 -38 0 -12 66 -26 80
-17 6 3 10 15 10 26 0 10 5 19 10 19 6 0 10 -5 10 -10 0 -6 10 -14 22 -19 18
-6 26 -3 41 15 23 29 47 31 70 4 10 -12 29 -20 46 -20 21 0 32 -6 36 -20 8
-25 23 -26 42 -2 13 15 14 12 9 -26 -5 -33 -3 -44 9 -48 8 -4 15 -10 15 -15 0
-15 -93 -109 -107 -109 -8 0 -16 -7 -20 -16 -4 -10 -13 -14 -28 -10 -27 7 -38
-3 -24 -21 9 -10 7 -18 -7 -34 -16 -18 -19 -18 -27 -4 -7 13 -13 8 -30 -27
-25 -52 -52 -89 -60 -82 -13 14 -27 -8 -17 -26 8 -15 4 -25 -25 -53 -19 -19
-35 -41 -35 -49 0 -8 -11 -24 -25 -34 -14 -10 -25 -26 -25 -34 -1 -19 -36 -61
-48 -58 -5 2 -22 -11 -38 -28 -16 -17 -71 -77 -123 -133 -51 -55 -99 -101
-105 -101 -16 0 -66 -56 -66 -74 0 -7 -7 -19 -15 -26 -8 -7 -15 -21 -15 -31 0
-11 -4 -19 -8 -19 -11 0 -32 -61 -32 -94 0 -15 7 -40 15 -56 12 -23 13 -39 6
-72 -7 -29 -6 -46 1 -55 5 -7 7 -20 4 -29 -4 -9 -2 -22 3 -28 14 -17 2 -58
-15 -52 -11 4 -14 -6 -14 -39 0 -35 6 -51 30 -76 27 -30 31 -32 53 -20 29 15
67 6 67 -15 0 -11 -8 -14 -27 -12 -20 2 -29 -2 -31 -16 -5 -24 5 -32 50 -40
36 -7 36 -6 43 34 4 26 12 40 22 40 19 0 38 20 47 48 11 32 36 28 36 -6 0 -16
7 -37 16 -48 14 -18 15 -15 9 33 -5 49 6 80 19 48 9 -25 36 -18 36 10 0 14 5
25 10 25 6 0 10 -13 10 -30 0 -37 25 -41 34 -5 5 20 13 25 36 25 17 0 39 -9
49 -19 19 -19 20 -19 43 8 19 21 24 35 20 64 -3 23 0 37 7 37 6 0 11 -7 11
-15 0 -8 9 -15 20 -15 10 0 24 -9 30 -20 6 -11 17 -20 26 -20 21 0 42 -49 26
-59 -17 -10 -28 -81 -13 -81 6 0 11 8 11 18 0 11 9 27 19 36 19 17 20 16 26
-38 4 -31 11 -56 16 -56 5 0 9 5 9 10 0 6 7 10 15 10 10 0 15 -10 15 -32 1
-30 2 -31 14 -16 12 16 14 16 25 -9 10 -22 10 -28 -3 -35 -9 -5 -16 -17 -16
-28 0 -10 -3 -20 -7 -22 -11 -4 -43 -67 -43 -83 0 -7 -7 -16 -15 -19 -12 -4
-13 -10 -6 -25 8 -14 7 -22 -4 -31 -13 -11 -12 -15 8 -34 21 -19 23 -30 22
-101 -1 -44 3 -87 8 -96 14 -23 2 -49 -24 -49 -16 0 -19 -4 -14 -17 4 -10 7
-27 7 -37 -1 -23 13 -51 39 -77 21 -21 39 -25 39 -8 0 7 15 10 40 7 28 -2 40
0 40 9 0 7 5 13 10 13 15 0 12 -18 -7 -37 -10 -10 -29 -18 -43 -18 -35 0 -41
-40 -8 -49 52 -13 67 -8 74 29 4 21 12 35 21 35 19 0 52 40 53 63 0 30 30 20
30 -11 0 -16 6 -36 13 -46 13 -18 14 -18 20 -2 4 10 2 26 -4 37 -5 11 -7 29
-4 40 l7 21 15 -21 c16 -24 33 -19 33 10 0 10 5 19 10 19 6 0 10 -11 10 -24 0
-37 27 -40 39 -4 8 22 15 29 27 24 8 -3 22 -6 30 -6 8 0 14 -7 14 -15 0 -10
-10 -15 -31 -15 -27 0 -30 -2 -19 -15 7 -8 19 -15 26 -15 17 0 18 -12 2 -28
-9 -9 -7 -16 10 -32 29 -27 30 -80 2 -80 -25 0 -25 -11 0 -33 24 -20 28 -59 5
-51 -8 4 -17 -1 -21 -9 -3 -9 -12 -13 -20 -10 -7 3 -17 -2 -20 -11 -6 -15 -18
-15 -77 1 -15 4 -17 0 -11 -35 7 -46 -8 -62 -29 -32 -17 24 -27 16 -27 -19 0
-18 -17 -45 -53 -83 -51 -55 -54 -57 -95 -51 -41 6 -59 -8 -27 -21 22 -8 19
-39 -2 -32 -16 5 -35 9 -99 22 -12 2 -27 17 -33 33 -15 36 -76 51 -96 24 -11
-15 -13 -15 -19 4 -5 16 -20 22 -72 30 -51 7 -67 7 -72 -4 -6 -10 -19 -11 -55
-4 -27 5 -50 5 -53 0 -9 -15 -46 -10 -61 9 -12 15 -13 12 -7 -23 8 -50 20 -64
36 -44 11 14 22 14 77 5 38 -7 66 -17 69 -25 4 -11 -5 -13 -42 -9 -36 4 -49 2
-53 -9 -4 -11 -9 -10 -20 7 -17 24 -33 26 -33 4 0 -12 -6 -15 -25 -10 -17 4
-31 1 -40 -8 -21 -21 -18 -34 8 -38 12 -2 22 -10 22 -18 0 -8 -6 -14 -13 -12
-18 3 -52 -31 -44 -44 4 -6 24 -13 45 -16 35 -4 38 -2 45 26 8 31 9 31 21 9
16 -30 42 -29 65 2 22 30 40 32 58 7 7 -11 29 -22 50 -26 20 -3 39 -13 42 -21
6 -17 36 -21 36 -5 0 6 5 10 10 10 7 0 8 -13 4 -36 -5 -27 -3 -38 12 -48 16
-12 14 -17 -27 -60 -24 -26 -45 -52 -47 -57 -2 -5 -12 -9 -23 -9 -10 0 -19 -4
-19 -10 0 -5 -14 -10 -30 -10 -27 0 -30 -3 -25 -23 8 -32 -19 -56 -34 -30 -9
17 -10 17 -16 -2 -26 -76 -53 -115 -79 -115 -12 0 -15 -6 -11 -23 4 -16 -3
-32 -30 -61 -19 -21 -35 -45 -35 -52 0 -8 -4 -14 -8 -14 -5 0 -17 -17 -28 -37
-23 -45 -38 -63 -54 -63 -6 0 -32 -23 -58 -52 -26 -28 -57 -62 -69 -74 l-23
-23 0 -364 c0 -341 1 -365 18 -363 11 0 17 -6 18 -19 1 -31 14 -65 25 -65 7 0
8 20 4 55 -5 38 -4 55 4 55 6 0 11 -6 11 -14 0 -26 29 -27 36 -1 8 32 24 32
24 0 0 -16 6 -25 15 -25 8 0 15 9 15 19 0 27 10 31 53 24 24 -3 37 -12 40 -25
5 -18 8 -17 35 13 23 25 28 38 21 51 -10 18 -2 48 12 48 5 0 9 -7 9 -15 0 -8
9 -15 20 -15 11 0 23 -7 26 -15 3 -8 13 -17 22 -20 10 -2 23 -14 30 -26 11
-18 11 -24 -2 -38 -17 -19 -22 -86 -6 -76 6 3 10 14 10 24 0 10 9 26 21 37 21
19 21 19 19 -6 -2 -14 0 -33 4 -42 4 -9 5 -22 1 -28 -4 -6 -1 -17 5 -25 9 -11
-2 -28 -57 -85 -37 -39 -69 -75 -71 -81 -2 -5 -10 -9 -18 -9 -21 0 -62 -44
-70 -74 -3 -14 -10 -26 -15 -26 -5 0 -9 -9 -9 -20 0 -11 -7 -23 -15 -26 -8 -4
-15 -14 -15 -24 0 -11 -5 -22 -11 -26 -6 -3 -8 -17 -5 -30 4 -14 2 -24 -4 -24
-16 0 -12 -22 7 -36 14 -10 19 -30 21 -96 2 -46 4 -99 5 -118 2 -29 -1 -34
-16 -32 -16 3 -18 -1 -13 -27 3 -17 9 -45 12 -61 3 -17 12 -30 20 -30 8 0 14
-7 14 -15 0 -17 26 -20 36 -4 4 7 21 9 40 6 25 -4 34 -2 34 9 0 8 5 14 10 14
15 0 12 -17 -7 -40 -12 -13 -24 -18 -40 -14 -20 5 -23 2 -23 -24 0 -28 3 -30
40 -34 41 -4 50 4 50 43 0 11 8 22 18 26 29 10 52 35 52 55 0 13 6 18 17 16
10 -2 18 -12 18 -23 1 -32 16 -66 26 -59 5 3 7 27 3 55 -5 34 -3 49 5 49 6 0
11 -7 11 -15 0 -25 27 -17 34 10 9 34 27 32 24 -2 -4 -35 25 -39 30 -5 3 18
10 22 38 22 21 0 40 -7 51 -19 15 -19 16 -18 39 9 18 21 22 35 18 58 -6 32 12
55 22 28 3 -9 14 -16 24 -16 10 0 22 -9 25 -20 3 -11 14 -20 24 -20 25 0 44
-43 26 -61 -17 -17 -24 -63 -10 -67 6 -2 12 5 14 14 3 18 25 44 36 44 4 0 4
-11 1 -24 -3 -14 -2 -28 4 -31 6 -3 7 -17 4 -31 -6 -24 11 -35 18 -12 7 20 37
1 31 -20 -2 -11 0 -23 6 -26 6 -4 11 0 11 11 1 17 2 17 15 -1 15 -20 15 -20
30 0 8 10 15 23 15 28 0 4 7 5 15 2 9 -3 18 1 21 9 5 11 16 13 45 9 24 -4 44
-2 53 5 11 9 16 5 25 -21 9 -24 14 -29 23 -20 7 7 22 12 35 12 14 0 23 6 23
15 0 8 -7 15 -15 15 -8 0 -15 8 -15 18 -1 15 -2 15 -15 -2 -13 -18 -15 -18
-21 -2 -4 10 -17 21 -30 26 -16 7 -21 14 -17 29 3 12 9 21 14 21 5 0 9 7 9 15
0 23 -15 18 -30 -11 -11 -20 -16 -23 -25 -12 -6 7 -19 18 -30 24 -25 14 -21
29 8 28 16 -1 27 8 40 37 20 42 41 44 31 3 -8 -31 6 -31 30 1 15 19 24 23 45
18 40 -9 44 -14 25 -34 -14 -15 -14 -19 -3 -23 34 -12 55 -11 65 3 20 25 36 3
29 -40 -4 -25 -3 -39 4 -39 6 0 11 9 11 20 0 23 57 53 92 48 19 -2 22 -8 20
-30 -2 -22 1 -28 17 -28 11 0 22 6 24 13 3 6 10 -2 17 -19 8 -24 19 -33 42
-38 21 -4 35 -2 40 6 6 10 10 10 18 -2 8 -13 11 -13 19 -1 12 19 31 5 31 -25
0 -19 6 -26 30 -31 35 -7 43 -15 34 -37 -8 -20 -50 -21 -57 -2 -3 8 -22 18
-42 22 -19 3 -39 12 -43 19 -7 13 -73 35 -104 35 -10 0 -18 -7 -18 -15 0 -8 9
-15 20 -15 11 0 29 -9 40 -20 11 -11 27 -20 35 -20 8 0 15 -7 15 -15 0 -8 -9
-15 -20 -15 -13 0 -20 -7 -20 -18 0 -11 -8 -27 -19 -36 -15 -14 -19 -14 -24
-3 -3 8 -21 17 -41 21 -19 4 -39 13 -43 20 -5 7 -18 16 -29 20 -17 5 -23 2
-27 -15 -8 -28 -1 -39 24 -39 10 0 27 -9 36 -20 20 -23 43 -26 61 -8 9 9 12 8
12 -8 0 -10 3 -29 6 -41 6 -20 3 -23 -25 -23 -17 0 -31 -2 -31 -5 0 -14 34
-55 46 -55 7 0 17 -7 21 -15 12 -20 135 -43 141 -26 5 14 59 15 68 0 3 -6 1
-16 -5 -22 -18 -18 -13 -25 20 -32 17 -4 33 -13 36 -21 3 -8 12 -14 20 -14 11
0 13 7 9 25 -8 32 11 33 41 1 15 -15 20 -30 16 -44 -8 -33 11 -26 24 8 14 38
39 48 58 24 8 -11 14 -14 15 -6 0 6 7 12 16 12 9 0 22 8 29 17 12 16 15 14 34
-19 25 -42 81 -66 81 -34 0 8 -14 17 -30 21 -17 4 -30 13 -30 22 0 11 7 13 29
8 34 -7 71 18 71 47 0 23 20 24 20 1 1 -17 2 -17 15 1 7 10 19 15 24 11 6 -3
14 1 17 9 10 25 22 19 44 -21 l21 -38 -6 41 c-4 26 -2 45 4 49 6 3 11 -1 11
-9 0 -9 5 -16 10 -16 6 0 8 11 4 25 -5 22 -3 25 20 25 16 0 26 -6 26 -15 0 -8
-4 -15 -10 -15 -5 0 -10 -7 -10 -15 0 -17 25 -20 35 -5 12 20 41 9 69 -25 16
-19 35 -35 41 -35 6 0 25 -16 41 -35 16 -19 35 -35 41 -35 7 0 22 -20 34 -45
12 -25 25 -45 30 -45 12 0 11 17 -1 25 -15 9 -12 25 5 25 9 0 18 -7 21 -15 4
-8 12 -15 20 -15 8 0 19 -9 26 -20 7 -11 21 -20 31 -20 10 0 20 -7 23 -15 5
-12 28 -15 120 -15 63 0 114 2 114 5 0 2 -16 20 -35 39 -35 36 -46 66 -22 66
7 0 18 -9 25 -20 7 -11 18 -20 26 -20 8 0 16 -7 20 -15 3 -8 12 -15 20 -15 9
0 20 -9 26 -20 9 -16 21 -20 63 -20 47 1 50 2 33 15 -16 12 -17 17 -6 30 11
14 9 20 -18 45 -35 32 -40 51 -17 70 18 15 5 43 -33 75 -60 49 -142 133 -142
144 0 16 42 4 53 -15 4 -8 13 -14 19 -14 6 0 26 -16 43 -36 23 -26 42 -37 71
-41 29 -4 45 -13 64 -39 14 -18 31 -34 39 -34 8 0 29 -17 47 -37 36 -40 54
-39 36 2 -15 33 -15 58 -1 49 8 -4 9 4 4 27 l-7 34 21 -22 c12 -13 30 -23 40
-23 11 0 21 -7 25 -15 3 -8 12 -15 20 -15 9 0 20 -9 26 -20 6 -12 21 -20 35
-20 28 0 65 -32 65 -55 0 -8 5 -15 10 -15 6 0 10 8 10 18 0 15 3 14 18 -4 20
-25 59 -37 69 -22 3 6 -1 16 -10 23 -20 15 -23 55 -4 55 8 0 27 -16 43 -35 16
-19 32 -35 36 -35 14 0 8 28 -7 34 -8 3 -15 12 -15 19 0 8 -20 36 -45 63 -25
26 -45 51 -45 55 0 19 21 18 37 -1 10 -11 23 -20 30 -20 7 0 17 -9 23 -20 6
-11 16 -20 22 -20 7 0 33 -22 59 -50 47 -50 78 -66 64 -32 -29 70 -30 72 -13
89 16 16 15 19 -16 49 -24 24 -33 39 -29 54 3 11 9 20 14 20 15 0 10 58 -7 74
-8 9 -24 16 -35 16 -22 0 -142 116 -134 130 11 18 37 2 108 -64 22 -21 54 -40
77 -45 25 -5 50 -21 67 -40 15 -17 32 -31 38 -31 5 0 23 -16 39 -35 16 -19 35
-35 43 -35 17 0 16 4 -3 43 -12 21 -13 32 -5 35 19 6 12 32 -9 32 -11 0 -20 7
-20 15 0 21 37 19 49 -2 8 -14 13 -15 19 -5 6 9 15 5 32 -18 22 -29 40 -39 40
-21 0 4 -11 20 -25 35 -33 36 -32 47 7 39 l31 -6 -7 41 c-4 26 -2 42 4 42 5 0
13 18 16 40 6 37 24 57 24 26 0 -14 29 -26 69 -26 17 0 22 4 17 16 -12 30 -51
73 -68 73 -22 1 -28 13 -21 40 4 17 10 20 27 15 11 -4 24 -12 28 -19 4 -7 24
-16 43 -19 20 -4 39 -14 42 -22 3 -7 11 -14 19 -14 7 0 19 -8 26 -19 17 -24
78 -39 78 -18 0 8 -7 17 -15 21 -17 6 -20 42 -4 51 10 7 59 -39 59 -56 0 -5 9
-9 20 -9 11 0 20 4 20 10 0 5 -9 14 -20 20 -11 6 -20 17 -20 25 0 8 -15 29
-34 47 -18 18 -38 43 -45 55 -10 20 -9 23 8 23 10 0 21 -7 25 -15 3 -8 12 -15
20 -15 9 0 20 -9 26 -20 6 -11 16 -20 23 -20 7 0 32 -22 57 -50 57 -64 89 -70
55 -10 -8 14 -14 28 -15 33 0 13 31 7 36 -8 4 -8 10 -12 15 -9 19 12 7 39 -36
81 -43 41 -56 75 -35 88 6 3 10 12 10 20 0 15 -50 75 -63 75 -12 0 -87 79 -87
92 0 15 53 0 65 -19 21 -34 46 -53 69 -53 13 0 27 -8 30 -17 5 -12 10 -13 18
-5 8 8 19 2 41 -24 17 -19 36 -34 43 -34 6 0 17 -13 24 -29 10 -26 47 -48 59
-35 2 2 -3 20 -12 39 -18 37 -10 50 23 40 14 -5 20 -2 20 9 0 9 5 16 10 16 6
0 10 -6 10 -14 0 -15 24 -28 34 -19 3 3 -1 18 -9 34 -20 38 -19 49 6 49 20 0
21 4 15 41 -6 38 -5 40 15 34 19 -6 20 -4 14 24 -8 36 12 43 33 11 7 -11 18
-20 26 -20 8 0 16 -7 20 -15 3 -8 12 -15 20 -15 9 0 20 -9 26 -20 6 -12 21
-20 35 -20 14 0 34 -9 45 -20 11 -11 27 -20 35 -20 8 0 19 -9 25 -20 7 -13 21
-20 40 -20 31 0 41 17 15 26 -19 7 -20 54 -2 54 8 0 27 -16 43 -35 16 -19 32
-35 36 -35 15 0 8 28 -9 34 -13 5 -14 9 -4 19 17 16 41 -16 41 -55 0 -15 5
-28 10 -28 6 0 10 5 10 10 0 18 59 11 80 -10 22 -22 50 -26 66 -10 6 6 27 7
55 2 40 -8 47 -6 62 14 9 13 17 30 17 38 0 18 25 21 36 5 3 -6 2 -14 -4 -18
-6 -4 -10 -24 -9 -46 3 -38 5 -40 42 -46 32 -5 42 -3 57 15 9 11 17 29 18 39
0 19 29 24 31 5 2 -22 -3 -43 -11 -48 -15 -10 -17 -36 -3 -62 22 -44 61 -32
82 25 9 23 11 24 71 14 42 -7 64 -16 71 -28 5 -11 18 -19 28 -19 11 0 23 -12
31 -29 11 -26 34 -40 68 -41 15 0 18 355 2 365 -6 3 -7 17 -4 31 5 18 2 24 -9
24 -9 0 -19 -5 -22 -11 -4 -6 -21 4 -41 25 -25 25 -44 36 -64 36 -27 0 -30 3
-30 30 0 27 -4 30 -39 36 -47 8 -74 48 -45 69 12 9 14 14 5 19 -7 5 -9 20 -5
41 4 26 1 38 -15 54 -12 12 -21 34 -21 50 0 16 -6 31 -15 35 -8 3 -15 10 -15
16 0 16 30 12 36 -5 7 -16 34 -21 34 -5 0 5 -6 13 -14 17 -11 7 -56 95 -56
111 0 2 20 2 46 -1 42 -4 45 -3 42 17 -2 11 -15 27 -30 34 -35 17 -36 32 -2
32 30 0 66 35 62 59 -2 9 -13 17 -26 19 -17 3 -22 10 -22 33 0 22 -5 29 -20
29 -18 0 -40 26 -40 49 0 16 27 13 33 -3 3 -8 19 -17 36 -21 17 -4 31 -11 31
-16 0 -5 10 -13 23 -18 16 -7 27 -4 40 10 16 17 16 21 2 48 -19 37 -19 41 0
41 7 0 18 -8 24 -18 9 -16 10 -16 16 1 10 25 -1 47 -25 47 -21 0 -27 14 -10
25 14 9 12 35 -2 35 -14 0 -61 98 -53 110 3 4 22 4 42 0 20 -5 40 -7 45 -4 14
9 -14 53 -36 56 -11 2 -21 10 -21 18 0 10 8 14 23 12 27 -4 64 33 60 57 -2 9
-13 17 -26 19 -17 3 -22 10 -22 33 0 22 -5 29 -19 29 -10 0 -21 7 -25 15 -3 8
-17 20 -31 25 -15 6 -23 14 -20 20 10 16 44 11 65 -10 11 -11 31 -22 45 -26
14 -3 25 -10 25 -15 0 -5 10 -13 23 -18 17 -7 27 -4 41 11 18 19 18 22 2 48
-9 16 -16 31 -16 34 0 13 30 5 39 -11 9 -15 10 -12 11 15 0 22 -5 32 -15 32
-9 0 -18 7 -21 15 -4 8 -12 15 -18 15 -7 0 -26 16 -43 35 -17 19 -37 35 -43
35 -14 0 -60 46 -60 60 0 5 -10 10 -22 12 -28 4 -36 28 -9 28 25 0 26 11 6 49
-15 29 -12 43 8 35 7 -2 33 -8 60 -13 42 -8 47 -7 47 10 0 14 -7 19 -30 19
-20 0 -30 5 -30 15 0 9 9 15 21 15 34 0 16 25 -21 28 -19 2 -43 14 -55 26 -35
38 -58 107 -33 99 5 -2 17 6 29 18 15 15 18 24 10 32 -16 16 -13 27 8 27 11 0
21 6 24 13 3 8 10 6 22 -8 16 -19 16 -19 12 20 -3 26 0 45 9 53 8 7 14 26 14
42 0 24 4 30 21 30 18 0 20 4 14 23 -20 66 -20 66 21 56 56 -12 74 -11 74 6 0
9 -9 15 -25 15 -16 0 -25 6 -25 15 0 9 9 15 21 15 36 0 15 25 -24 28 -20 2
-37 7 -37 11 0 24 -53 62 -95 68 -45 6 -66 33 -25 33 11 0 20 5 20 10 0 18 20
11 20 -7 1 -17 2 -17 15 1 7 10 18 16 23 13 11 -7 45 31 38 42 -3 5 -24 11
-47 14 -22 3 -46 12 -52 20 -19 22 -47 29 -54 12 -6 -18 -42 -10 -59 13 -9 13
-11 13 -16 0 -4 -10 -16 -13 -37 -10 -39 5 -42 32 -3 32 16 0 34 8 42 20 8 11
23 20 33 20 33 0 12 24 -28 32 -30 7 -41 5 -47 -6 -5 -8 -15 -13 -23 -10 -8 4
-15 1 -15 -4 0 -15 -58 -42 -75 -36 -8 3 -24 -6 -37 -21 -23 -26 -26 -26 -77
-17 -50 9 -56 8 -72 -12 -10 -11 -18 -29 -19 -38 0 -11 -8 -18 -20 -18 -11 0
-20 -5 -20 -11 0 -7 -12 -9 -34 -5 -27 5 -37 3 -44 -10 -14 -25 -21 -4 -13 36
4 21 13 35 21 35 8 0 19 6 23 13 5 7 18 10 31 6 19 -4 25 -1 29 18 7 25 47 48
84 48 26 0 28 5 8 40 -12 22 -14 23 -20 7 -5 -12 -14 -16 -27 -11 -13 4 -25
-2 -40 -21 -15 -19 -28 -26 -44 -22 -14 2 -25 -2 -28 -10 -4 -10 -10 -9 -26 7
-11 11 -29 20 -40 20 -22 0 -28 25 -7 34 8 3 6 9 -7 20 -14 12 -17 19 -9 27 8
8 15 5 26 -11 18 -26 22 -20 32 45 6 43 9 47 19 32 15 -19 26 -13 26 15 0 10
5 18 10 18 6 0 10 7 10 15 0 8 -7 15 -15 15 -8 0 -15 5 -15 11 0 6 7 17 15 25
8 9 15 31 15 49 0 28 6 36 32 49 40 20 55 20 66 -1 9 -15 11 -15 25 -1 34 33
48 247 17 256 -8 2 -21 12 -29 21 -10 12 -15 13 -18 4 -9 -26 -33 -13 -33 17
0 30 -21 42 -35 20 -4 -6 -11 -8 -16 -4 -5 3 -7 10 -3 15 3 5 10 7 15 4 5 -4
9 1 9 10 0 12 7 16 28 13 21 -2 28 1 30 19 2 12 10 27 18 33 8 7 14 22 14 34
0 41 12 66 31 66 11 0 19 5 19 10 0 6 11 10 25 10 16 0 25 -6 25 -15 0 -29 32
-5 44 33 4 12 11 22 15 22 5 0 6 26 3 58 -2 31 -4 76 -3 100 1 36 -2 42 -18
42 -11 0 -25 8 -31 18 -8 12 -13 13 -16 5 -8 -19 -28 -16 -42 7 -7 11 -19 20
-27 20 -8 0 -15 7 -15 15 0 8 4 15 9 15 6 0 13 19 16 43 4 26 18 56 35 75 33
38 42 40 34 8 -3 -13 -1 -27 4 -30 13 -8 24 36 12 48 -6 6 -10 22 -10 36 0 14
-7 35 -15 46 -14 17 -16 17 -25 3 -6 -11 -18 -15 -35 -11 -15 2 -25 0 -25 -7
0 -6 -9 -11 -20 -11 -11 0 -20 -5 -20 -11 0 -8 -16 -10 -50 -6 -48 6 -110 -13
-110 -32 0 -5 -11 -6 -24 -4 -13 3 -27 0 -30 -6 -4 -6 -18 -11 -32 -11 -13 0
-24 -4 -24 -10 0 -5 -9 -10 -20 -10 -11 0 -20 -4 -20 -10 0 -5 -7 -10 -16 -10
-9 0 -27 -11 -40 -25 -13 -14 -29 -25 -36 -25 -8 0 -20 -9 -28 -20 -8 -11 -22
-20 -32 -20 -10 0 -18 -4 -18 -10 0 -5 -6 -10 -14 -10 -7 0 -19 -7 -26 -15 -7
-8 -16 -13 -20 -10 -4 2 -18 -7 -30 -20 -13 -14 -29 -25 -36 -25 -7 0 -22 -12
-33 -26 -11 -14 -25 -23 -31 -19 -5 3 -13 -1 -16 -9 -3 -9 -14 -16 -23 -16 -9
0 -23 -9 -31 -20 -8 -11 -22 -20 -32 -20 -10 0 -18 -5 -18 -11 0 -6 -17 -9
-42 -7 -30 2 -43 8 -43 18 0 8 7 14 16 12 9 -1 19 4 22 13 4 8 13 12 22 9 8
-3 15 -1 15 5 0 6 9 11 20 11 11 0 20 7 20 15 0 15 -10 18 -82 30 -21 3 -38
10 -38 16 0 5 -11 14 -25 19 -29 11 -33 30 -7 30 9 0 26 11 36 25 11 14 25 24
32 21 14 -5 24 15 24 50 0 34 18 30 22 -5 l3 -29 39 45 c36 41 38 47 23 58
-21 15 -22 35 -3 35 8 0 18 -9 21 -20 4 -11 11 -18 16 -15 5 3 3 15 -4 26 -10
17 -9 22 6 30 21 12 23 49 3 49 -8 0 -18 -5 -22 -12 -5 -7 -11 -5 -21 7 -22
31 -16 47 15 43 22 -2 28 1 30 20 5 33 20 27 24 -10 3 -28 5 -30 12 -13 4 11
14 32 22 47 11 20 12 33 5 47 -8 14 -6 22 8 35 22 20 41 21 41 1 0 -8 5 -15
11 -15 7 0 8 11 4 30 -6 26 -4 29 12 24 10 -4 23 -13 30 -22 30 -37 62 65 60
196 0 53 -3 62 -18 62 -10 0 -23 8 -29 18 -8 12 -13 13 -16 5 -20 -46 -71 42
-60 101 8 41 27 46 53 16 17 -20 43 -27 43 -12 0 4 -12 18 -26 31 -24 23 -31
69 -9 63 6 -2 9 -12 7 -22 -2 -11 2 -20 9 -20 8 0 10 12 5 41 -6 37 -5 40 14
34 22 -7 26 5 10 36 -6 10 -20 19 -30 19 -13 0 -20 7 -20 19 0 14 5 18 20 14
26 -7 60 23 60 53 0 16 -7 24 -22 26 -17 2 -22 9 -21 26 2 16 -4 25 -22 32
-14 5 -25 14 -25 20 0 5 -11 12 -25 16 -14 3 -25 13 -25 21 0 12 7 14 33 9 17
-4 34 -11 35 -16 2 -6 19 -17 38 -25 19 -8 34 -19 34 -24 0 -17 46 -13 60 4
10 12 10 21 1 41 -6 14 -11 29 -11 34 0 17 28 11 35 -7 6 -17 7 -17 16 -1 12
22 1 48 -21 48 -10 0 -20 7 -24 15 -3 8 -11 15 -18 15 -7 0 -26 16 -42 35 -16
19 -35 35 -41 35 -6 0 -25 16 -42 35 -17 19 -38 35 -47 35 -8 0 -23 9 -33 19
-10 11 -29 21 -43 23 -36 4 -33 34 3 30 15 -2 27 1 27 7 0 6 9 11 20 11 28 0
25 19 -5 30 -14 5 -25 14 -25 19 0 5 -10 13 -22 17 -27 8 -38 22 -38 47 0 12
6 17 18 15 11 -2 18 4 20 20 2 14 10 22 23 22 18 0 20 4 14 31 -6 26 -4 30 11
27 13 -2 20 6 27 35 6 26 14 37 28 37 10 0 19 6 19 13 1 7 6 5 14 -6 19 -25
29 -6 20 38 -4 23 -2 35 5 35 6 0 11 9 11 19 0 33 11 51 31 51 22 0 23 7 4 40
-8 14 -14 29 -15 33 0 5 30 5 66 1 54 -5 66 -4 62 7 -3 8 -15 16 -29 17 -36 5
-48 22 -21 28 35 10 27 34 -11 34 -24 0 -39 8 -61 35 -22 26 -39 36 -73 41
-48 7 -64 21 -36 31 10 4 21 11 26 17 5 7 11 5 18 -7 10 -18 11 -18 25 0 7 10
14 14 14 9 0 -14 40 25 40 39 0 7 -21 15 -50 19 -32 4 -50 12 -50 20 0 19 -48
27 -54 10 -7 -20 -23 -17 -46 6 -16 16 -22 17 -26 7 -4 -10 -14 -12 -36 -8
-42 9 -49 31 -10 31 16 0 37 9 47 20 10 11 24 20 32 20 7 0 13 6 13 14 0 20
-72 30 -86 11 -6 -8 -14 -11 -18 -7 -4 4 -14 -1 -21 -12 -8 -10 -18 -15 -24
-12 -5 4 -14 -1 -19 -10 -6 -11 -16 -15 -28 -10 -12 5 -24 -1 -40 -19 -21 -25
-25 -26 -76 -16 -58 10 -77 0 -92 -47 -4 -13 -16 -22 -27 -22 -10 0 -19 -5
-19 -11 0 -7 -12 -9 -34 -5 -23 5 -36 3 -39 -6 -9 -27 -18 1 -11 37 4 25 11
35 21 31 7 -3 16 1 20 9 3 10 15 14 32 13 20 -2 27 2 29 20 2 14 10 22 23 22
10 0 19 5 19 10 0 6 14 10 30 10 33 0 38 15 17 44 -12 16 -15 17 -20 3 -3 -9
-13 -13 -25 -10 -13 3 -26 -4 -40 -21 -12 -16 -30 -26 -46 -26 -14 0 -26 -5
-26 -12 0 -6 -9 -2 -20 10 -14 14 -33 22 -55 22 -33 0 -60 20 -37 28 7 2 12
10 12 19 0 23 -35 11 -38 -15 -2 -12 -9 -22 -17 -22 -19 0 -26 27 -9 34 8 3
14 15 14 26 0 13 7 20 20 20 11 0 20 5 20 10 0 6 11 10 25 10 21 0 25 -5 25
-30 0 -49 19 -34 26 20 6 47 24 81 24 46 0 -9 5 -16 10 -16 6 0 10 8 10 18 0
19 17 37 57 60 34 18 43 15 43 -18 0 -34 25 -42 35 -11 7 23 -33 71 -59 71
-19 0 -46 -23 -46 -38 0 -4 -13 -7 -30 -4 -18 3 -30 0 -30 -7 0 -6 -10 -11
-23 -11 -13 0 -33 -9 -45 -20 -12 -11 -30 -20 -40 -20 -23 0 -52 -30 -52 -53
0 -21 -19 -22 -26 -2 -4 8 -15 15 -25 15 -10 0 -19 5 -19 11 0 15 26 39 42 39
7 0 22 11 32 25 10 14 24 25 30 25 7 0 27 15 45 34 24 24 38 32 57 28 17 -3
24 0 24 11 0 21 -59 34 -71 16 -5 -8 -22 -12 -41 -11 -26 2 -37 -3 -52 -22
-10 -14 -23 -23 -28 -20 -5 3 -15 -2 -22 -12 -16 -21 -36 -10 -34 19 0 12 -3
30 -7 40 -5 13 -2 17 12 17 10 0 27 11 37 25 10 13 23 22 28 19 5 -3 18 6 29
20 23 29 49 34 49 11 0 -8 5 -15 11 -15 7 0 9 9 6 22 -7 24 17 58 38 58 7 0
16 16 19 35 4 19 12 35 18 35 6 0 8 -10 4 -25 -9 -35 3 -31 48 17 35 37 37 42
23 53 -18 13 -23 35 -8 35 5 0 16 -10 25 -22 16 -23 16 -23 10 10 -3 20 -2 32
5 32 6 0 11 11 11 25 0 26 -24 35 -33 13 -7 -17 -27 9 -27 35 0 14 5 16 25 11
20 -5 25 -2 31 20 3 14 11 26 16 26 6 0 7 -11 4 -24 -3 -14 -2 -27 3 -30 5 -4
12 7 16 24 4 16 11 30 17 30 7 0 8 14 5 36 -7 39 8 64 37 64 9 0 16 5 16 10 0
17 47 11 54 -6 6 -15 8 -15 25 0 23 21 40 122 33 199 -4 46 -8 57 -22 57 -10
0 -20 10 -24 22 -5 22 -6 22 -21 3 -15 -20 -16 -20 -31 3 -9 12 -25 22 -35 22
-11 0 -19 7 -19 15 0 22 -508 23 -516 1z m-3276 -350 c3 -12 -1 -17 -10 -14
-7 3 -15 13 -16 22 -3 12 1 17 10 14 7 -3 15 -13 16 -22z m1652 -107 c0 -5 -4
-9 -10 -9 -5 0 -10 7 -10 16 0 8 5 12 10 9 6 -3 10 -10 10 -16z m180 -225 c0
-8 -4 -12 -10 -9 -5 3 -10 10 -10 16 0 5 5 9 10 9 6 0 10 -7 10 -16z m1520
-225 c0 -5 -4 -9 -10 -9 -5 0 -10 7 -10 16 0 8 5 12 10 9 6 -3 10 -10 10 -16z
m-28 -31 c-9 -9 -12 -7 -12 12 0 19 3 21 12 12 9 -9 9 -15 0 -24z m38 -17 c0
-6 -4 -13 -10 -16 -5 -3 -10 1 -10 9 0 9 5 16 10 16 6 0 10 -4 10 -9z m230
-266 c0 -8 -4 -15 -10 -15 -5 0 -10 7 -10 15 0 8 5 15 10 15 6 0 10 -7 10 -15z
m-40 -15 c0 -6 -9 -21 -20 -32 -15 -16 -23 -19 -31 -11 -15 15 -3 34 16 26 9
-3 15 1 15 11 0 9 5 16 10 16 6 0 10 -5 10 -10z m437 -25 c5 -8 36 -20 68 -27
55 -10 104 -40 105 -62 0 -14 -113 5 -126 21 -8 12 -13 13 -18 4 -10 -15 -88
-3 -103 17 -20 25 -15 42 11 42 14 0 28 5 31 10 9 14 23 12 32 -5z m189 -72
c-10 -10 -19 5 -10 18 6 11 8 11 12 0 2 -7 1 -15 -2 -18z m-359 -19 c15 -14
17 -14 25 0 8 14 11 14 28 -2 43 -39 55 -47 79 -52 14 -3 27 -13 29 -22 3 -15
-2 -17 -27 -12 -18 4 -37 2 -45 -5 -11 -10 -16 -9 -23 4 -5 9 -34 20 -70 26
-49 9 -63 15 -72 35 -16 35 -15 37 19 31 17 -4 30 -2 30 3 0 14 9 12 27 -6z
m-3377 -799 c0 -8 -4 -15 -10 -15 -5 0 -10 7 -10 15 0 8 5 15 10 15 6 0 10 -7
10 -15z m-24 -16 c3 -6 2 -15 -2 -19 -12 -12 -38 5 -30 19 9 14 23 14 32 0z
m-493 -25 c15 -3 27 -12 27 -21 0 -12 -8 -13 -41 -8 -29 5 -44 3 -49 -5 -6 -9
-13 -7 -29 9 -42 42 -25 47 92 25z m232 -214 c3 -5 -3 -20 -14 -32 l-21 -22 0
32 c0 31 21 45 35 22z m3965 -415 c0 -8 -4 -15 -10 -15 -5 0 -10 7 -10 15 0 8
5 15 10 15 6 0 10 -7 10 -15z m610 -670 c0 -14 -4 -25 -10 -25 -5 0 -10 11
-10 25 0 14 5 25 10 25 6 0 10 -11 10 -25z m40 -81 c0 -8 -4 -12 -10 -9 -5 3
-10 10 -10 16 0 5 5 9 10 9 6 0 10 -7 10 -16z m-4492 -16 c-2 -13 -11 -24 -20
-26 -21 -4 -23 13 -5 33 18 21 29 18 25 -7z m-138 -33 c0 -18 -5 -25 -20 -25
-24 0 -25 8 -3 32 21 23 23 23 23 -7z m55 -32 c5 -14 7 -14 18 1 11 16 15 16
25 3 17 -20 4 -47 -22 -47 -12 0 -27 -5 -34 -12 -7 -7 -12 -10 -13 -7 -9 72
-8 88 5 83 8 -3 17 -13 21 -21z m-65 -38 c0 -8 -4 -15 -10 -15 -5 0 -10 7 -10
15 0 8 5 15 10 15 6 0 10 -7 10 -15z m3700 0 c0 -8 -4 -15 -10 -15 -5 0 -10 7
-10 15 0 8 5 15 10 15 6 0 10 -7 10 -15z m-28 -60 c6 -14 9 -27 6 -30 -9 -10
-98 8 -98 19 0 13 36 33 63 35 10 0 22 -10 29 -24z m48 -1 c0 -8 -5 -12 -10
-9 -6 4 -8 11 -5 16 9 14 15 11 15 -7z m-3829 -9 c-1 -15 -24 -12 -29 3 -3 9
2 13 12 10 10 -1 17 -7 17 -13z m226 -75 c3 0 14 11 24 24 13 16 26 22 39 19
24 -6 27 -33 4 -33 -19 0 -44 -24 -44 -43 0 -23 -12 -28 -27 -9 -12 15 -13 13
-8 -18 4 -31 4 -33 -6 -13 -11 21 -13 22 -25 5 -9 -11 -13 -12 -14 -4 0 7 -12
17 -26 22 -31 12 -27 34 7 35 15 0 25 7 27 18 2 11 11 28 20 38 17 19 17 19
20 -11 2 -16 6 -30 9 -30z m-270 4 c-5 -31 -2 -39 28 -67 34 -32 34 -33 15
-50 -29 -25 -40 -21 -40 13 0 17 -9 39 -21 51 -18 18 -20 25 -10 40 6 10 11
26 11 34 0 8 5 15 11 15 8 0 10 -12 6 -36z m173 28 c0 -5 -9 -17 -20 -27 -22
-20 -28 -4 -7 20 14 16 27 19 27 7z m-50 -56 c-1 -19 -2 -19 -15 4 -20 35 -19
62 0 36 8 -11 15 -29 15 -40z m3500 14 c0 -5 -5 -12 -11 -16 -14 -8 -33 11
-25 25 7 11 36 4 36 -9z m-3570 -31 c0 -5 -4 -9 -10 -9 -5 0 -10 7 -10 16 0 8
5 12 10 9 6 -3 10 -10 10 -16z m112 -29 c3 -15 -2 -20 -22 -20 -11 0 -14 33
-3 44 8 8 20 -4 25 -24z m-740 -42 c-9 -9 -12 -7 -12 12 0 19 3 21 12 12 9 -9
9 -15 0 -24z m744 -65 c-10 -10 -19 5 -10 18 6 11 8 11 12 0 2 -7 1 -15 -2
-18z m-18 -16 c2 -10 -3 -17 -12 -17 -18 0 -29 16 -21 31 9 14 29 6 33 -14z
m-38 -22 c0 -8 -4 -15 -10 -15 -5 0 -10 7 -10 15 0 8 5 15 10 15 6 0 10 -7 10
-15z m4650 -20 c0 -8 -2 -15 -4 -15 -2 0 -6 7 -10 15 -3 8 -1 15 4 15 6 0 10
-7 10 -15z m-120 -536 c0 -5 -4 -9 -10 -9 -5 0 -10 7 -10 16 0 8 5 12 10 9 6
-3 10 -10 10 -16z m-20 -250 c0 -5 -4 -9 -10 -9 -5 0 -10 7 -10 16 0 8 5 12
10 9 6 -3 10 -10 10 -16z m-40 -20 c0 -5 -7 -9 -15 -9 -8 0 -15 -7 -15 -15 0
-8 -7 -15 -15 -15 -9 0 -15 9 -15 21 0 15 5 19 15 15 9 -3 18 1 21 9 6 15 24
11 24 -6z m439 -18 c11 -11 41 -22 70 -26 52 -7 109 -44 97 -63 -8 -13 -115
11 -127 28 -8 11 -12 12 -16 3 -7 -19 -84 -5 -105 19 -25 29 -22 38 12 38 17
0 30 5 30 10 0 16 18 12 39 -9z m191 -56 c0 -8 -4 -15 -10 -15 -5 0 -10 7 -10
15 0 8 5 15 10 15 6 0 10 -7 10 -15z m-344 -32 c6 17 8 17 26 -2 10 -12 25
-21 32 -21 8 0 16 -7 20 -15 3 -8 16 -15 30 -15 22 0 41 -21 29 -33 -2 -3 -20
-3 -39 0 -22 4 -34 2 -34 -6 0 -6 -4 -11 -10 -11 -5 0 -10 6 -10 14 0 9 -21
18 -62 25 -62 11 -88 28 -88 59 0 10 7 12 25 8 18 -5 27 -2 32 10 5 14 9 13
24 -7 16 -22 18 -22 25 -6z m-4946 -399 c0 -18 -28 -49 -37 -40 -9 8 14 56 27
56 5 0 10 -7 10 -16z m5331 -1059 c-1 -15 -24 -12 -29 3 -3 9 2 13 12 10 10
-1 17 -7 17 -13z m-5151 -101 c0 -17 -6 -28 -19 -31 -12 -3 -21 -17 -26 -39
-3 -19 -11 -34 -17 -34 -6 0 -8 9 -5 20 3 11 1 22 -4 25 -4 3 -11 -7 -15 -22
-10 -49 -12 -51 -38 -46 -15 3 -26 1 -26 -6 0 -6 -5 -11 -11 -11 -7 0 -9 9 -6
22 4 12 2 27 -4 34 -7 8 -6 15 2 20 7 4 18 -1 26 -11 13 -18 13 -18 28 1 8 10
15 24 15 29 2 23 40 56 59 50 12 -3 21 0 25 10 8 23 16 18 16 -11z m40 1 c0
-8 -4 -15 -10 -15 -5 0 -10 7 -10 15 0 8 5 15 10 15 6 0 10 -7 10 -15z m-232
-57 c-2 -13 -11 -24 -20 -26 -21 -4 -23 13 -5 33 18 21 29 18 25 -7z m-8 -67
c0 -6 -4 -13 -10 -16 -5 -3 -10 1 -10 9 0 9 5 16 10 16 6 0 10 -4 10 -9z
m-110 -66 c0 -8 -7 -15 -15 -15 -8 0 -15 7 -15 15 0 8 7 15 15 15 8 0 15 -7
15 -15z m-46 -80 c-7 -39 11 -56 31 -29 13 18 14 18 15 2 0 -10 -4 -18 -10
-18 -5 0 -10 -7 -10 -15 0 -8 7 -15 15 -15 19 0 19 -17 0 -37 -18 -18 -47 -10
-39 11 6 16 -12 56 -34 72 -12 9 -12 12 2 23 9 8 16 22 16 33 0 11 5 16 10 13
6 -4 8 -21 4 -40z m156 13 c-12 -11 -24 -17 -27 -14 -9 8 30 45 40 39 5 -3 -1
-14 -13 -25z m-30 -35 c0 -13 -20 -19 -20 -5 0 4 -3 18 -6 32 -5 24 -5 24 10
6 9 -11 16 -26 16 -33z m26 -40 c-10 -10 -19 5 -10 18 6 11 8 11 12 0 2 -7 1
-15 -2 -18z m-130 -120 c-10 -10 -19 5 -10 18 6 11 8 11 12 0 2 -7 1 -15 -2
-18z m5520 -363 c25 -10 26 -12 10 -29 -9 -9 -16 -25 -16 -33 0 -52 -40 -56
-66 -7 -19 37 -29 36 -68 -6 l-33 -35 -11 25 c-13 27 0 71 17 60 5 -2 14 1 20
8 6 8 23 12 40 9 16 -2 32 1 35 7 9 14 37 14 72 1z m-1186 -35 c0 -8 -4 -15
-10 -15 -5 0 -10 7 -10 15 0 8 5 15 10 15 6 0 10 -7 10 -15z m-60 -130 c0 -8
-7 -15 -15 -15 -8 0 -15 7 -15 15 0 8 7 15 15 15 8 0 15 -7 15 -15z m-3286 -1
c9 -3 16 -12 16 -20 0 -8 9 -14 20 -14 12 0 25 -10 32 -25 10 -21 8 -28 -12
-45 -17 -14 -21 -26 -16 -45 7 -29 26 -34 26 -7 0 11 8 26 19 36 17 16 18 15
25 -30 7 -54 1 -68 -26 -61 -11 3 -21 0 -25 -9 -8 -22 -20 -17 -27 11 -7 27
-40 45 -82 45 -16 0 -24 6 -24 16 0 14 7 16 40 11 22 -3 43 -1 46 5 9 14 1 18
-55 27 -49 8 -51 7 -51 -15 0 -13 -4 -26 -10 -29 -6 -3 -10 4 -10 17 0 14 14
38 35 58 26 26 33 39 29 57 -5 18 -2 23 14 23 11 0 27 -3 36 -6z m126 -10 c0
-8 -4 -12 -10 -9 -5 3 -10 10 -10 16 0 5 5 9 10 9 6 0 10 -7 10 -16z m110 -20
c0 -8 -4 -12 -10 -9 -5 3 -10 10 -10 16 0 5 5 9 10 9 6 0 10 -7 10 -16z m40
-5 c0 -5 -4 -9 -10 -9 -5 0 -10 7 -10 16 0 8 5 12 10 9 6 -3 10 -10 10 -16z
m-160 -19 c0 -6 14 -24 30 -40 34 -34 35 -36 16 -56 -23 -22 -36 -17 -36 16 0
17 -9 39 -20 50 -24 24 -26 40 -5 40 8 0 15 -5 15 -10z m220 -17 c0 -20 -44
-13 -48 8 -2 13 3 15 23 12 14 -3 25 -12 25 -20z m-520 -29 c0 -8 -4 -12 -10
-9 -5 3 -10 10 -10 16 0 5 5 9 10 9 6 0 10 -7 10 -16z m617 0 c12 -3 27 -19
33 -35 7 -16 19 -29 26 -29 7 0 21 -11 30 -25 16 -24 15 -27 -1 -45 -21 -23
-49 -15 -42 12 3 11 0 21 -8 25 -8 2 -17 14 -21 26 -6 19 -7 19 -16 3 -9 -16
-11 -16 -25 3 -8 12 -21 21 -29 21 -14 0 -20 31 -7 43 8 8 31 9 60 1z m-825
-82 c-7 -2 -12 -8 -12 -14 0 -10 -25 -38 -34 -38 -14 0 -4 22 22 49 15 17 29
25 31 19 2 -7 -1 -14 -7 -16z m-158 -16 c-5 -30 -2 -39 25 -65 37 -36 38 -42
11 -59 -24 -15 -44 -7 -36 15 7 17 -10 52 -33 70 -11 9 -13 15 -5 20 6 5 14
18 18 31 12 36 28 26 20 -12z m948 -6 c6 -20 19 -32 36 -37 28 -7 102 -74 102
-93 0 -7 -8 -9 -20 -5 -14 5 -20 2 -20 -9 0 -9 7 -16 15 -16 8 0 15 -7 15 -15
0 -8 -9 -15 -20 -15 -11 0 -20 -4 -20 -10 0 -22 -28 -8 -40 20 -15 36 -30 39
-30 5 0 -14 -4 -25 -10 -25 -5 0 -10 14 -10 30 0 22 -5 30 -18 30 -9 0 -23 9
-30 20 -7 11 -18 20 -26 20 -8 0 -16 7 -20 15 -6 17 -36 21 -36 5 0 -16 -40
-11 -47 6 -8 22 17 64 39 64 10 0 18 5 18 11 0 6 18 9 47 8 30 -2 48 1 51 9 6
19 12 14 24 -18z m-232 -15 c0 -28 -15 -34 -24 -9 -10 25 -7 34 9 34 9 0 15
-9 15 -25z m410 -6 c0 -5 -4 -9 -10 -9 -5 0 -10 7 -10 16 0 8 5 12 10 9 6 -3
10 -10 10 -16z m-1080 -15 c0 -8 -4 -12 -10 -9 -5 3 -10 10 -10 16 0 5 5 9 10
9 6 0 10 -7 10 -16z m700 0 c0 -8 -5 -12 -10 -9 -6 4 -8 11 -5 16 9 14 15 11
15 -7z m-586 -20 c11 -28 7 -44 -9 -38 -8 4 -15 17 -15 30 0 27 15 32 24 8z
m531 7 c3 -5 1 -12 -5 -16 -5 -3 -10 1 -10 9 0 18 6 21 15 7z m465 -10 c0 -22
-16 -36 -24 -22 -8 12 3 41 15 41 5 0 9 -9 9 -19z m-20 -96 c0 -8 -4 -15 -10
-15 -5 0 -10 7 -10 15 0 8 5 15 10 15 6 0 10 -7 10 -15z m1570 -10 c0 -8 -4
-15 -10 -15 -5 0 -10 7 -10 15 0 8 5 15 10 15 6 0 10 -7 10 -15z m440 -20 c0
-8 -4 -15 -10 -15 -5 0 -10 7 -10 15 0 8 5 15 10 15 6 0 10 -7 10 -15z m-1972
-21 c12 -4 22 -13 22 -21 0 -12 -8 -14 -34 -9 -31 6 -35 4 -44 -21 l-9 -28
-13 28 c-12 24 -11 29 6 42 21 16 37 18 72 9z m-288 -25 c0 -5 -4 -9 -10 -9
-5 0 -10 7 -10 16 0 8 5 12 10 9 6 -3 10 -10 10 -16z m-150 -5 c0 -8 -4 -12
-10 -9 -5 3 -10 10 -10 16 0 5 5 9 10 9 6 0 10 -7 10 -16z m273 -16 c29 -34
21 -41 -35 -34 -29 4 -53 8 -55 9 -1 1 -5 15 -8 30 l-7 28 43 -7 c25 -3 52
-15 62 -26z m1017 -83 c0 -8 -7 -15 -15 -15 -8 0 -15 7 -15 15 0 8 7 15 15 15
8 0 15 -7 15 -15z m-1230 -77 c0 -16 -3 -19 -11 -11 -6 6 -8 16 -5 22 11 17
16 13 16 -11z m350 -4 c0 -8 -4 -12 -10 -9 -5 3 -10 10 -10 16 0 5 5 9 10 9 6
0 10 -7 10 -16z m1520 -3 c0 -20 -13 -35 -23 -25 -7 8 4 44 14 44 5 0 9 -9 9
-19z m-1970 -27 c0 -8 -5 -12 -10 -9 -6 4 -8 11 -5 16 9 14 15 11 15 -7z m150
1 c0 -8 -7 -15 -15 -15 -8 0 -15 7 -15 15 0 8 7 15 15 15 8 0 15 -7 15 -15z
m370 -11 c0 -8 -4 -12 -10 -9 -5 3 -10 10 -10 16 0 5 5 9 10 9 6 0 10 -7 10
-16z m-220 -15 c0 -5 -4 -9 -10 -9 -5 0 -10 7 -10 16 0 8 5 12 10 9 6 -3 10
-10 10 -16z m1400 -10 c0 -5 -4 -9 -10 -9 -5 0 -10 7 -10 16 0 8 5 12 10 9 6
-3 10 -10 10 -16z m150 6 c0 -8 -4 -15 -10 -15 -5 0 -10 7 -10 15 0 8 5 15 10
15 6 0 10 -7 10 -15z m-870 -81 c0 -8 -5 -12 -10 -9 -6 4 -8 11 -5 16 9 14 15
11 15 -7z m313 -45 c-3 -10 -9 -19 -14 -19 -11 0 -12 21 -3 45 9 23 23 0 17
-26z m-123 -45 c0 -8 -4 -12 -10 -9 -5 3 -10 10 -10 16 0 5 5 9 10 9 6 0 10
-7 10 -16z"/>
<path d="M1480 907 c0 -8 7 -18 16 -21 11 -4 14 -1 12 11 -4 21 -28 30 -28 10z"/>
<path d="M1866 681 c-4 -7 -5 -15 -2 -18 9 -9 19 4 14 18 -4 11 -6 11 -12 0z"/>
<path d="M1900 635 c0 -9 9 -15 24 -15 13 0 30 -10 39 -22 14 -20 16 -21 16
-5 1 34 -18 57 -49 57 -20 0 -30 -5 -30 -15z"/>
<path d="M4706 8111 c-4 -5 -2 -12 3 -15 5 -4 12 -2 15 3 4 5 2 12 -3 15 -5 4
-12 2 -15 -3z"/>
<path d="M2862 7884 c4 -24 48 -33 48 -10 0 9 -4 16 -9 16 -5 0 -17 3 -26 6
-13 5 -16 2 -13 -12z"/>
<path d="M673 7852 c-11 -28 11 -67 37 -67 21 0 25 5 28 36 3 34 1 37 -28 41
-22 3 -34 0 -37 -10z"/>
<path d="M2932 7844 c4 -24 48 -33 48 -10 0 9 -4 16 -9 16 -5 0 -17 3 -26 6
-13 5 -16 2 -13 -12z"/>
<path d="M2860 7764 c0 -8 5 -12 10 -9 6 3 10 10 10 16 0 5 -4 9 -10 9 -5 0
-10 -7 -10 -16z"/>
<path d="M2803 7715 c-18 -20 -16 -37 5 -33 9 2 18 13 20 26 4 25 -7 28 -25 7z"/>
<path d="M4384 7609 c-8 -14 11 -33 25 -25 6 4 11 11 11 16 0 13 -29 20 -36 9z"/>
<path d="M4522 7548 c5 -15 28 -18 29 -3 0 6 -7 12 -17 13 -10 3 -15 -1 -12
-10z"/>
<path d="M4696 7430 c-15 -16 -17 -23 -8 -32 9 -9 17 -7 33 8 12 10 24 18 28
17 3 -2 6 3 6 10 0 20 -38 18 -59 -3z"/>
<path d="M4627 7399 c-19 -22 -25 -35 -17 -43 7 -7 14 -6 22 2 7 7 20 12 30
12 21 0 23 19 5 43 -11 16 -14 15 -40 -14z"/>
<path d="M4790 7396 c0 -9 -4 -16 -10 -16 -5 0 -10 -8 -10 -17 1 -17 1 -17 14
0 8 10 20 16 27 15 8 -2 14 4 14 12 0 8 -8 16 -17 18 -11 2 -18 -3 -18 -12z"/>
<path d="M4580 7350 c0 -21 20 -50 35 -50 8 0 15 3 15 8 0 12 -50 55 -50 42z"/>
<path d="M4712 7348 c7 -20 48 -23 48 -4 0 11 -9 16 -26 16 -16 0 -24 -5 -22
-12z"/>
<path d="M4950 7334 c0 -8 5 -12 10 -9 6 3 10 10 10 16 0 5 -4 9 -10 9 -5 0
-10 -7 -10 -16z"/>
<path d="M5220 6066 c0 -9 5 -16 10 -16 6 0 10 4 10 9 0 6 -4 13 -10 16 -5 3
-10 -1 -10 -9z"/>
<path d="M596 6061 c-4 -7 -5 -15 -2 -18 9 -9 19 4 14 18 -4 11 -6 11 -12 0z"/>
<path d="M467 6053 c-4 -3 -7 -23 -7 -44 0 -36 1 -37 40 -41 24 -2 41 1 44 8
3 8 19 9 56 2 55 -10 90 -4 74 12 -5 5 -45 15 -87 22 -57 8 -81 17 -88 30 -10
19 -21 23 -32 11z"/>
<path d="M770 5996 c0 -13 20 -26 41 -26 15 0 10 27 -7 34 -24 9 -34 7 -34 -8z"/>
<path d="M685 5930 c-9 -14 37 -31 50 -19 6 7 5 13 -5 19 -20 13 -37 12 -45 0z"/>
<path d="M420 5886 c0 -9 5 -16 10 -16 6 0 10 4 10 9 0 6 -4 13 -10 16 -5 3
-10 -1 -10 -9z"/>
<path d="M5180 5845 c0 -8 5 -15 10 -15 6 0 10 7 10 15 0 8 -4 15 -10 15 -5 0
-10 -7 -10 -15z"/>
<path d="M5070 5835 c0 -8 5 -15 10 -15 6 0 10 7 10 15 0 8 -4 15 -10 15 -5 0
-10 -7 -10 -15z"/>
<path d="M4960 5630 c0 -5 5 -10 10 -10 6 0 10 5 10 10 0 6 -4 10 -10 10 -5 0
-10 -4 -10 -10z"/>
<path d="M5060 5225 c0 -8 5 -15 10 -15 6 0 10 7 10 15 0 8 -4 15 -10 15 -5 0
-10 -7 -10 -15z"/>
<path d="M5830 5101 c0 -6 5 -13 10 -16 6 -3 10 1 10 9 0 9 -4 16 -10 16 -5 0
-10 -4 -10 -9z"/>
<path d="M5680 5067 c0 -15 29 -57 30 -42 0 6 -3 20 -6 33 -7 24 -24 31 -24 9z"/>
<path d="M5616 4891 c-4 -7 -5 -15 -2 -18 9 -9 19 4 14 18 -4 11 -6 11 -12 0z"/>
<path d="M600 4625 c0 -8 7 -15 15 -15 8 0 15 7 15 15 0 8 -7 15 -15 15 -8 0
-15 -7 -15 -15z"/>
<path d="M442 4568 c7 -20 48 -23 48 -4 0 11 -9 16 -26 16 -16 0 -24 -5 -22
-12z"/>
<path d="M265 4521 c-3 -5 -1 -12 5 -16 5 -3 10 1 10 9 0 18 -6 21 -15 7z"/>
<path d="M5710 4475 c0 -8 5 -15 10 -15 6 0 10 7 10 15 0 8 -4 15 -10 15 -5 0
-10 -7 -10 -15z"/>
<path d="M5590 3965 c0 -8 5 -15 10 -15 6 0 10 7 10 15 0 8 -4 15 -10 15 -5 0
-10 -7 -10 -15z"/>
<path d="M5532 3918 c6 -18 28 -21 28 -4 0 9 -7 16 -16 16 -9 0 -14 -5 -12
-12z"/>
<path d="M5462 3898 c-17 -17 -15 -38 3 -38 8 0 15 5 15 11 0 6 8 9 18 7 11
-2 17 -13 17 -28 0 -15 6 -26 18 -28 22 -4 24 43 2 52 -8 3 -15 12 -15 21 0
18 -41 20 -58 3z"/>
<path d="M5705 3800 c-15 -16 -16 -23 -6 -33 10 -9 14 -8 22 6 6 9 14 15 20
12 17 -11 31 6 18 21 -16 19 -33 18 -54 -6z"/>
<path d="M5633 3770 c-27 -33 -29 -50 -8 -50 8 0 15 5 15 10 0 6 9 10 20 10
22 0 23 3 14 38 -8 28 -14 27 -41 -8z"/>
<path d="M5802 3764 c1 -9 9 -19 16 -22 9 -3 13 2 10 14 -1 9 -9 19 -16 22 -9
3 -13 -2 -10 -14z"/>
<path d="M1010 3744 c0 -8 5 -12 10 -9 6 4 8 11 5 16 -9 14 -15 11 -15 -7z"/>
<path d="M5770 3741 c0 -6 5 -13 10 -16 6 -3 10 1 10 9 0 9 -4 16 -10 16 -5 0
-10 -4 -10 -9z"/>
<path d="M5587 3724 c-8 -9 14 -52 29 -58 8 -3 14 -1 14 5 0 15 -36 59 -43 53z"/>
<path d="M5720 3715 c0 -9 9 -15 25 -15 16 0 25 6 25 15 0 9 -9 15 -25 15 -16
0 -25 -6 -25 -15z"/>
<path d="M5950 3711 c0 -6 5 -13 10 -16 6 -3 10 1 10 9 0 9 -4 16 -10 16 -5 0
-10 -4 -10 -9z"/>
<path d="M1050 3656 c0 -11 9 -16 26 -16 31 0 28 23 -4 28 -15 2 -22 -2 -22
-12z"/>
<path d="M1120 3616 c0 -11 9 -16 26 -16 31 0 28 23 -4 28 -15 2 -22 -2 -22
-12z"/>
<path d="M1050 3546 c0 -9 5 -16 10 -16 6 0 10 4 10 9 0 6 -4 13 -10 16 -5 3
-10 -1 -10 -9z"/>
<path d="M993 3495 c-18 -20 -16 -37 5 -33 9 2 18 13 20 26 4 25 -7 28 -25 7z"/>
<path d="M932 3484 c1 -9 9 -19 16 -22 9 -3 13 2 10 14 -1 9 -9 19 -16 22 -9
3 -13 -2 -10 -14z"/>
<path d="M340 3075 c0 -8 5 -15 10 -15 6 0 10 7 10 15 0 8 -4 15 -10 15 -5 0
-10 -7 -10 -15z"/>
<path d="M206 3048 c-8 -38 -2 -44 47 -53 26 -5 37 -4 37 5 0 12 63 8 113 -7
14 -4 18 0 15 13 -2 14 -20 21 -82 30 -52 8 -83 18 -88 28 -15 26 -35 18 -42
-16z"/>
<path d="M520 3015 c0 -9 9 -15 25 -15 16 0 25 6 25 15 0 9 -9 15 -25 15 -16
0 -25 -6 -25 -15z"/>
<path d="M432 2948 c7 -20 48 -23 48 -4 0 11 -9 16 -26 16 -16 0 -24 -5 -22
-12z"/>
<path d="M166 2905 c4 -8 8 -15 10 -15 2 0 4 7 4 15 0 8 -4 15 -10 15 -5 0 -7
-7 -4 -15z"/>
<path d="M6070 2211 c0 -6 5 -13 10 -16 6 -3 10 1 10 9 0 9 -4 16 -10 16 -5 0
-10 -4 -10 -9z"/>
<path d="M6100 1925 c0 -8 5 -15 10 -15 6 0 10 7 10 15 0 8 -4 15 -10 15 -5 0
-10 -7 -10 -15z"/>
<path d="M5950 1701 c0 -6 5 -13 10 -16 6 -3 10 1 10 9 0 9 -4 16 -10 16 -5 0
-10 -4 -10 -9z"/>
<path d="M350 1645 c0 -8 7 -15 15 -15 8 0 15 7 15 15 0 8 -7 15 -15 15 -8 0
-15 -7 -15 -15z"/>
<path d="M5960 1616 c0 -9 5 -16 10 -16 6 0 10 4 10 9 0 6 -4 13 -10 16 -5 3
-10 -1 -10 -9z"/>
<path d="M190 1597 c0 -14 20 -27 41 -27 5 0 9 7 9 15 0 8 -4 15 -9 15 -5 0
-16 3 -25 6 -10 4 -16 1 -16 -9z"/>
<path d="M10 1541 c0 -6 5 -13 10 -16 6 -3 10 1 10 9 0 9 -4 16 -10 16 -5 0
-10 -4 -10 -9z"/>
<path d="M5035 961 c-3 -5 -1 -12 5 -16 5 -3 10 1 10 9 0 18 -6 21 -15 7z"/>
<path d="M5135 891 c-3 -5 -1 -12 5 -16 5 -3 10 1 10 9 0 18 -6 21 -15 7z"/>
<path d="M5166 862 c-2 -4 -1 -14 5 -22 7 -12 9 -10 9 8 0 23 -5 28 -14 14z"/>
<path d="M4843 845 c-13 -15 -17 -35 -7 -35 10 0 34 28 34 39 0 15 -12 13 -27
-4z"/>
<path d="M5405 838 c-3 -7 -6 -31 -8 -53 -2 -37 0 -40 23 -40 21 0 25 6 32 44
4 24 5 48 2 52 -8 13 -44 11 -49 -3z"/>
<path d="M4660 804 c0 -14 4 -23 10 -19 6 3 10 15 10 26 0 10 -4 19 -10 19 -5
0 -10 -12 -10 -26z"/>
<path d="M4620 806 c0 -9 5 -16 10 -16 6 0 10 4 10 9 0 6 -4 13 -10 16 -5 3
-10 -1 -10 -9z"/>
<path d="M5030 789 c0 -11 4 -18 10 -14 5 3 7 12 3 20 -7 21 -13 19 -13 -6z"/>
<path d="M4690 768 c0 -18 36 -48 71 -58 25 -7 29 -6 29 10 0 24 -26 50 -50
50 -10 0 -25 3 -34 6 -10 4 -16 1 -16 -8z"/>
<path d="M1258 735 c-22 -29 -23 -55 -3 -55 19 0 28 20 23 53 l-3 25 -17 -23z"/>
<path d="M5610 748 c0 -7 -3 -23 -6 -35 -4 -16 -1 -25 10 -29 21 -8 46 19 46
50 0 21 -5 26 -25 26 -14 0 -25 -6 -25 -12z"/>
<path d="M805 740 c-3 -6 1 -13 10 -16 19 -8 30 0 20 15 -8 14 -22 14 -30 1z"/>
<path d="M650 676 c0 -11 9 -16 26 -16 31 0 28 23 -4 28 -15 2 -22 -2 -22 -12z"/>
<path d="M4700 676 c0 -11 9 -16 26 -16 31 0 28 23 -4 28 -15 2 -22 -2 -22
-12z"/>
<path d="M1380 646 c0 -9 5 -16 10 -16 6 0 10 4 10 9 0 6 -4 13 -10 16 -5 3
-10 -1 -10 -9z"/>
<path d="M470 625 c0 -8 5 -15 10 -15 6 0 10 7 10 15 0 8 -4 15 -10 15 -5 0
-10 -7 -10 -15z"/>
<path d="M4550 596 c0 -9 5 -16 10 -16 6 0 10 4 10 9 0 6 -4 13 -10 16 -5 3
-10 -1 -10 -9z"/>
<path d="M4324 579 c-3 -6 -1 -16 5 -22 8 -8 11 -5 11 11 0 24 -5 28 -16 11z"/>
<path d="M1359 554 c-7 -9 -25 -20 -39 -26 -24 -9 -24 -10 -6 -24 25 -18 63
-18 82 0 18 19 18 23 -5 47 -17 18 -19 18 -32 3z"/>
<path d="M4360 534 c0 -8 5 -12 10 -9 6 4 8 11 5 16 -9 14 -15 11 -15 -7z"/>
<path d="M1102 494 c1 -9 9 -19 16 -22 9 -3 13 2 10 14 -1 9 -9 19 -16 22 -9
3 -13 -2 -10 -14z"/>
<path d="M1150 455 c0 -8 7 -15 15 -15 8 0 15 7 15 15 0 8 -7 15 -15 15 -8 0
-15 -7 -15 -15z"/>
<path d="M1250 416 c0 -9 5 -16 10 -16 6 0 10 4 10 9 0 6 -4 13 -10 16 -5 3
-10 -1 -10 -9z"/>
<path d="M1100 405 c0 -8 5 -15 10 -15 6 0 10 7 10 15 0 8 -4 15 -10 15 -5 0
-10 -7 -10 -15z"/>
<path d="M1451 374 c0 -11 3 -14 6 -6 3 7 2 16 -1 19 -3 4 -6 -2 -5 -13z"/>
<path d="M1486 381 c-4 -7 -5 -15 -2 -18 9 -9 19 4 14 18 -4 11 -6 11 -12 0z"/>
<path d="M1332 368 c7 -19 38 -22 38 -4 0 10 -9 16 -21 16 -12 0 -19 -5 -17
-12z"/>
<path d="M3890 366 c0 -17 38 -28 46 -14 7 11 -13 28 -33 28 -7 0 -13 -6 -13
-14z"/>
<path d="M4275 281 c-3 -5 -1 -12 5 -16 5 -3 10 1 10 9 0 18 -6 21 -15 7z"/>
<path d="M2386 231 c-4 -7 -5 -15 -2 -18 9 -9 19 4 14 18 -4 11 -6 11 -12 0z"/>
<path d="M3910 195 c0 -8 5 -15 10 -15 6 0 10 7 10 15 0 8 -4 15 -10 15 -5 0
-10 -7 -10 -15z"/>
<path d="M1960 125 c0 -8 5 -15 10 -15 6 0 10 7 10 15 0 8 -4 15 -10 15 -5 0
-10 -7 -10 -15z"/>
<path d="M3290 130 c0 -5 -13 -10 -30 -10 -25 0 -30 -4 -30 -24 0 -27 31 -41
50 -22 8 8 13 7 20 -4 14 -23 23 -4 16 35 -6 31 -26 51 -26 25z"/>
<path d="M3470 131 c0 -6 5 -13 10 -16 6 -3 10 1 10 9 0 9 -4 16 -10 16 -5 0
-10 -4 -10 -9z"/>
<path d="M2080 75 c0 -8 5 -15 10 -15 6 0 10 7 10 15 0 8 -4 15 -10 15 -5 0
-10 -7 -10 -15z"/>
<path d="M3800 76 c0 -9 5 -16 10 -16 6 0 10 4 10 9 0 6 -4 13 -10 16 -5 3
-10 -1 -10 -9z"/>
<path d="M2650 65 c0 -8 5 -15 10 -15 6 0 10 7 10 15 0 8 -4 15 -10 15 -5 0
-10 -7 -10 -15z"/>
<path d="M3570 55 c0 -8 5 -15 10 -15 6 0 10 7 10 15 0 8 -4 15 -10 15 -5 0
-10 -7 -10 -15z"/>
<path d="M3236 31 c-4 -5 -2 -12 3 -15 5 -4 12 -2 15 3 4 5 2 12 -3 15 -5 4
-12 2 -15 -3z"/>
<path d="M3604 29 c-3 -6 -1 -16 5 -22 8 -8 11 -5 11 11 0 24 -5 28 -16 11z"/>
<path d="M3282 15 c-11 -13 -9 -15 8 -15 11 0 20 7 20 15 0 19 -11 19 -28 0z"/>
</g>
</svg>
