<?xml version="1.0" standalone="no"?>
<!DOCTYPE svg PUBLIC "-//W3C//DTD SVG 20010904//EN"
 "http://www.w3.org/TR/2001/REC-SVG-20010904/DTD/svg10.dtd">
<svg version="1.0" xmlns="http://www.w3.org/2000/svg"
 width="601.000000pt" height="804.000000pt" viewBox="0 0 601.000000 804.000000"
 preserveAspectRatio="xMidYMid meet">

<g transform="translate(0.000000,804.000000) scale(0.100000,-0.100000)"
fill="#000000" stroke="none">
<path d="M4807 8025 c-21 -7 -60 -31 -85 -53 -26 -21 -65 -48 -87 -60 -22 -11
-75 -53 -117 -94 -82 -79 -127 -155 -148 -255 -6 -26 -15 -59 -22 -73 -6 -14
-15 -34 -19 -45 -5 -11 -11 -42 -13 -69 -3 -37 -11 -56 -36 -81 -27 -28 -31
-38 -25 -65 5 -25 4 -31 -6 -25 -9 6 -11 2 -6 -16 4 -13 1 -30 -7 -39 -17 -21
-34 -86 -35 -139 -1 -24 -3 -47 -6 -49 -3 -3 2 -14 12 -24 15 -17 15 -18 -2
-18 -17 0 -17 -2 3 -22 19 -21 19 -28 10 -70 -11 -47 -21 -58 -33 -38 -3 6 -1
10 4 10 17 0 13 37 -5 44 -9 3 -16 6 -17 6 -1 0 -3 -26 -4 -57 -1 -36 -12 -83
-28 -122 -20 -48 -25 -74 -20 -100 8 -43 44 -121 56 -121 5 0 6 7 3 15 -4 9 0
15 8 15 19 0 38 -42 32 -67 -4 -14 5 -26 35 -46 27 -18 41 -23 44 -14 3 7 6 3
6 -9 1 -11 5 -24 10 -30 8 -8 17 -140 12 -184 -1 -13 -2 -13 -11 0 -8 13 -10
13 -10 -1 0 -29 -37 -62 -63 -55 -25 6 -47 -16 -79 -79 -23 -45 -41 -216 -33
-315 17 -214 39 -290 146 -514 11 -22 19 -41 19 -43 0 -2 -15 -3 -33 -3 -17 0
-70 -13 -116 -29 l-85 -28 51 1 c28 1 49 3 47 6 -3 2 16 12 42 22 51 21 65 17
42 -9 -9 -10 -32 -72 -53 -138 -70 -229 -96 -292 -116 -279 -5 3 -14 -7 -19
-23 -15 -40 -18 -45 -37 -73 -10 -14 11 0 46 30 109 93 137 121 117 113 -17
-6 -18 -3 -12 33 10 50 33 118 58 169 10 22 22 62 25 88 3 26 10 50 14 53 9 5
15 -150 10 -228 -1 -21 2 -38 7 -38 10 0 144 141 180 189 13 17 57 58 98 92
72 59 77 61 102 48 14 -8 42 -30 61 -49 l36 -35 -33 -3 c-23 -2 -48 -17 -82
-50 -27 -26 -57 -53 -65 -60 -8 -7 -13 -17 -10 -23 15 -24 -39 3 -77 39 -16
15 -28 20 -28 13 0 -7 14 -25 30 -39 17 -15 30 -30 30 -35 0 -4 -28 -34 -61
-65 -85 -79 -108 -102 -150 -147 -19 -22 -62 -62 -95 -89 -32 -27 -66 -56 -74
-65 -9 -9 -47 -43 -85 -76 -39 -33 -79 -68 -89 -77 -11 -10 -22 -18 -26 -18
-3 0 -16 -18 -30 -41 -14 -22 -35 -45 -48 -50 -14 -5 -25 -20 -28 -38 l-6 -30
-61 45 c-66 47 -72 50 -83 32 -4 -7 -3 -8 5 -4 12 8 91 -49 91 -66 0 -6 -10
-8 -24 -4 -16 4 -29 0 -41 -14 -10 -11 -14 -20 -9 -20 5 0 4 -4 -1 -8 -6 -4
-23 -25 -40 -47 -16 -22 -35 -44 -42 -48 -7 -4 -13 -13 -13 -20 0 -7 -19 -30
-43 -52 -128 -122 -204 -189 -241 -212 -75 -48 -206 -175 -206 -200 0 -21 -2
-23 -22 -12 -13 6 -39 27 -60 46 -20 20 -42 33 -48 31 -7 -2 9 -21 34 -42 46
-37 59 -66 31 -66 -8 0 -15 -3 -15 -8 0 -16 -98 -122 -157 -171 -33 -28 -97
-86 -142 -129 -44 -44 -97 -92 -118 -107 -59 -44 -203 -197 -203 -217 0 -35
-19 -26 -66 30 -26 31 -49 59 -51 61 -2 2 -6 1 -9 -2 -4 -4 5 -24 20 -45 14
-21 26 -43 26 -48 0 -6 -16 -26 -36 -45 -20 -18 -44 -46 -54 -61 -17 -28 -101
-108 -338 -323 -85 -76 -132 -125 -130 -136 2 -9 -8 -28 -22 -41 -14 -13 -30
-33 -36 -44 -11 -18 -14 -16 -56 26 -25 25 -50 54 -56 65 -6 11 -14 16 -18 12
-4 -4 6 -27 23 -51 42 -59 50 -86 26 -86 -10 0 -31 -19 -48 -45 -16 -24 -36
-45 -44 -45 -18 0 23 -32 84 -64 47 -25 75 -35 45 -16 -12 8 -9 16 22 46 l36
37 64 -30 c35 -17 90 -43 123 -59 32 -15 78 -47 101 -71 23 -24 49 -43 58 -43
9 0 16 -7 16 -16 0 -14 -8 -16 -47 -11 -35 4 -42 3 -28 -4 15 -7 9 -8 -22 -4
-23 3 -50 8 -60 11 -15 5 -15 4 -3 -5 8 -6 38 -16 66 -22 42 -10 55 -9 82 5
17 9 37 26 43 39 17 34 222 226 241 227 9 0 20 5 23 11 4 6 14 8 23 4 9 -3 13
-3 9 1 -10 10 24 33 49 34 13 0 24 8 27 20 3 13 10 18 21 14 17 -7 22 11 6 21
-15 9 -12 25 4 25 16 0 46 -37 46 -57 0 -7 -7 -10 -15 -7 -17 7 -49 -21 -40
-36 11 -18 -34 -80 -59 -80 -9 0 -16 -6 -16 -12 0 -15 -63 -58 -83 -58 -7 0
-18 5 -24 11 -8 8 -13 7 -18 -1 -4 -6 -2 -17 3 -22 8 -8 8 -17 1 -30 -6 -11
-9 -21 -7 -22 16 -11 63 -26 78 -26 11 0 37 -9 59 -21 37 -19 39 -22 28 -42
-7 -12 -16 -25 -21 -28 -5 -4 -6 -11 -2 -17 11 -18 -22 -40 -76 -51 -60 -13
-68 -22 -68 -72 0 -32 4 -37 27 -42 41 -8 96 4 115 23 9 10 14 20 11 23 -6 7
11 32 60 86 33 37 39 40 57 29 11 -7 18 -19 15 -25 -3 -8 4 -13 19 -13 18 0
26 7 31 27 8 34 24 55 36 47 18 -11 8 -43 -26 -80 -19 -22 -35 -42 -35 -46 0
-13 -105 -58 -137 -58 -18 0 -33 -4 -33 -8 0 -5 -10 -14 -22 -20 l-23 -11 23
0 c12 -1 30 3 40 8 38 19 87 30 95 22 5 -5 28 -6 53 -3 33 3 45 1 50 -11 10
-27 -14 -54 -60 -68 -24 -7 -42 -18 -40 -23 4 -12 -55 -56 -75 -56 -7 0 -33
16 -58 35 -40 31 -60 39 -84 37 -4 -1 -6 9 -5 21 1 20 -4 22 -46 22 -26 0 -50
4 -54 8 -4 4 -18 7 -31 7 -16 0 -23 6 -23 20 0 11 -6 20 -14 20 -8 0 -23 17
-34 38 -22 44 -48 50 -45 10 1 -21 -4 -29 -28 -37 -19 -6 -39 -7 -54 -1 -18 7
-29 4 -48 -10 -22 -18 -28 -18 -52 -6 -14 8 -27 18 -28 22 -1 5 -6 8 -11 6 -5
-2 -17 5 -27 14 -10 9 -23 13 -31 8 -11 -6 -11 -5 0 8 10 13 10 17 -3 22 -9 3
-14 10 -11 15 3 5 -1 14 -10 21 -8 7 -13 19 -10 27 8 19 -40 36 -64 23 -11 -6
-23 -18 -29 -27 -8 -14 -13 -15 -34 -6 -14 7 -31 22 -37 33 -11 20 -10 21 9
15 15 -4 21 -2 21 9 0 8 9 22 21 30 21 14 19 36 -4 36 -14 0 -32 19 -60 63
-19 29 -43 37 -33 11 7 -18 -11 -47 -24 -39 -4 2 -15 -4 -25 -15 -14 -16 -31
-20 -76 -20 -51 0 -62 4 -106 39 -26 21 -61 50 -76 65 -15 14 -32 26 -37 26
-5 0 -23 14 -40 30 -31 30 -31 32 -15 57 12 18 13 24 3 21 -7 -3 -23 -1 -36 3
-22 9 -23 7 -17 -21 6 -29 6 -30 -27 -26 -27 3 -34 8 -36 30 -4 36 31 91 69
106 32 14 25 16 206 -66 59 -27 103 -31 103 -10 0 8 10 22 22 30 17 12 18 16
6 16 -8 0 -21 -7 -28 -15 -7 -8 -20 -15 -29 -14 -9 0 -11 3 -5 5 6 3 9 15 7
28 -4 17 1 27 15 35 22 11 38 46 33 70 -2 9 3 12 13 8 9 -4 16 -3 16 1 0 4 16
16 35 26 19 10 43 27 54 37 25 24 58 15 39 -10 -6 -9 24 18 68 59 43 42 104
98 134 125 30 27 93 85 140 128 76 72 81 77 42 58 -23 -12 -42 -25 -42 -29 0
-5 -38 -46 -83 -91 -73 -72 -116 -105 -236 -183 -14 -9 -64 -23 -111 -32 -47
-8 -110 -22 -140 -31 -30 -8 -58 -14 -63 -12 -9 3 97 168 241 374 144 206 187
277 222 361 17 40 44 95 61 124 44 74 99 185 99 200 1 25 48 128 83 180 19 29
107 138 195 241 88 104 206 252 263 330 56 78 114 156 129 172 15 17 34 42 41
57 24 45 90 138 99 138 5 0 -1 -21 -12 -47 -26 -59 -35 -175 -17 -218 12 -28
13 -25 20 60 5 50 13 113 19 140 14 60 10 107 -9 113 -8 3 -11 0 -7 -7 4 -6
-5 -21 -20 -34 -29 -25 -24 -26 -132 3 -66 17 -61 5 5 -14 79 -22 88 -29 74
-54 -16 -30 -74 -47 -113 -33 -39 14 -71 14 -63 1 10 -17 -23 -11 -103 16
-102 35 -179 74 -231 118 -24 20 -46 35 -48 32 -5 -5 38 -66 46 -66 3 0 17
-10 31 -21 14 -11 19 -17 11 -13 -9 5 -12 3 -7 -5 4 -6 12 -9 17 -6 10 7 139
-54 139 -65 0 -4 -7 -13 -15 -20 -8 -7 -15 -18 -14 -24 4 -30 -3 -45 -21 -51
-11 -4 -18 -10 -15 -15 3 -5 -2 -22 -12 -37 -10 -15 -17 -28 -15 -30 10 -13
-4 -46 -34 -77 -19 -20 -33 -40 -30 -45 3 -4 -9 -16 -28 -26 -18 -10 -50 -45
-72 -77 -36 -56 -121 -140 -221 -220 -23 -18 -45 -41 -48 -50 -4 -10 -11 -18
-17 -18 -16 0 -58 -37 -50 -44 4 -4 -4 -16 -17 -25 -14 -10 -25 -29 -26 -42
-7 -96 -20 -159 -38 -191 -11 -21 -25 -38 -30 -38 -5 0 -6 -7 -3 -17 7 -17
-24 -53 -44 -53 -7 0 -10 -15 -8 -37 2 -31 7 -39 26 -41 12 -2 22 1 22 7 0 6
0 13 0 16 0 3 13 32 30 65 16 33 30 70 30 82 0 45 12 63 56 84 l44 21 -2 -33
c-1 -19 3 -39 9 -45 7 -7 5 -29 -6 -74 -10 -36 -20 -68 -24 -71 -4 -4 -7 -18
-7 -30 0 -14 -8 -25 -20 -29 -11 -3 -21 -15 -21 -26 -1 -10 -2 -25 -3 -31 -2
-21 -49 -69 -65 -67 -42 4 -59 -3 -70 -27 -6 -15 -15 -24 -18 -20 -4 3 -18
-13 -31 -36 -14 -24 -31 -47 -39 -51 -7 -4 -13 -14 -13 -21 0 -18 -37 -49 -49
-42 -11 7 -71 -69 -71 -90 0 -7 -11 -21 -25 -32 -13 -11 -22 -22 -19 -25 7 -6
-20 -50 -58 -95 -15 -18 -28 -40 -28 -48 0 -8 -8 -29 -17 -47 -9 -18 -18 -38
-19 -45 -1 -7 -14 -29 -29 -48 -14 -19 -28 -44 -30 -56 -6 -30 -25 -48 -25
-23 0 10 -3 15 -6 12 -4 -3 -14 -2 -23 3 -22 11 -30 6 -79 -62 -43 -58 -51
-75 -31 -62 8 5 8 1 0 -14 -6 -11 -14 -45 -17 -76 -8 -63 -40 -118 -56 -94 -7
10 -10 10 -19 -4 -5 -10 -20 -18 -32 -19 -14 0 -17 -3 -8 -6 10 -4 8 -9 -10
-19 l-24 -14 22 -6 c22 -6 22 -7 -13 -50 -28 -33 -43 -44 -65 -44 -16 0 -29 4
-29 9 0 5 -8 11 -18 13 -12 3 -8 7 16 18 43 20 41 30 -5 20 -20 -5 -40 -7 -44
-4 -4 2 -30 -7 -57 -21 -27 -14 -53 -25 -56 -25 -3 0 -38 -21 -77 -46 -56 -35
-74 -43 -80 -32 -6 9 -9 6 -9 -11 0 -17 4 -22 16 -17 9 3 22 6 29 6 7 0 27 11
44 25 32 27 158 75 198 75 26 0 131 -81 150 -115 7 -13 27 -32 45 -43 43 -27
116 -102 99 -102 -10 0 -11 -3 -3 -13 6 -7 13 -28 14 -46 1 -18 8 -37 15 -43
17 -14 17 -28 -1 -28 -7 0 -32 21 -55 46 -36 40 -39 49 -29 67 l11 22 -22 -20
c-13 -11 -18 -21 -12 -23 6 -2 11 -9 11 -16 0 -16 59 -86 72 -86 23 0 119 -53
151 -84 18 -17 53 -40 77 -51 25 -11 55 -30 69 -43 13 -12 30 -22 36 -22 18 0
61 -37 53 -45 -4 -4 -21 3 -38 15 -21 15 -35 19 -43 12 -13 -11 -163 -10 -174
1 -3 4 -14 7 -24 7 -9 0 -27 11 -40 25 -13 13 -30 25 -36 25 -7 0 -13 10 -13
23 0 26 -24 42 -78 52 -19 4 -40 17 -49 31 -12 18 -19 22 -29 13 -17 -14 -54
5 -54 29 0 13 2 14 9 4 6 -10 21 -12 55 -7 25 4 46 10 46 14 0 12 -58 41 -83
41 -42 0 -57 -10 -57 -40 0 -16 -7 -30 -16 -34 -22 -9 -24 -8 -24 10 0 28 65
84 97 84 32 0 48 15 77 72 22 43 14 61 -24 56 -20 -3 -27 -1 -23 9 11 27 -17
11 -49 -28 -54 -68 -111 -130 -115 -126 -2 2 5 23 16 47 18 41 85 112 116 124
8 3 15 10 15 16 0 12 -22 13 -36 1 -5 -4 -31 -16 -57 -26 -26 -10 -64 -33 -84
-52 -51 -46 -55 -42 -8 7 l39 40 -32 -9 c-17 -5 -37 -13 -43 -17 -7 -4 -18 0
-25 10 -8 11 -14 13 -19 7 -3 -6 -4 -11 0 -11 3 0 -6 -21 -19 -47 -19 -36 -26
-69 -29 -133 -3 -47 -12 -116 -22 -155 -31 -129 -34 -150 -35 -204 0 -30 -4
-80 -10 -110 -5 -31 -12 -73 -15 -93 -5 -34 -9 -38 -35 -38 -29 0 -67 -16
-123 -54 -47 -31 -51 -16 -57 189 -5 194 -19 265 -19 99 0 -128 -23 -263 -79
-461 -16 -57 -30 -82 -65 -119 -30 -31 -51 -45 -61 -41 -14 6 -16 -8 -16 -116
l0 -122 19 29 c19 29 96 70 112 60 5 -3 9 -13 9 -24 0 -16 4 -17 43 -8 25 7
54 24 72 43 33 35 77 65 97 65 19 1 92 53 91 65 -1 6 3 15 8 22 7 7 6 13 0 17
-6 4 -8 13 -4 22 4 11 9 12 19 3 8 -6 11 -15 8 -20 -3 -5 -2 -9 3 -9 8 0 31
-59 37 -95 2 -11 4 -23 5 -26 2 -10 81 -28 81 -19 0 8 39 23 54 21 14 -3 36
21 29 32 -3 6 -1 7 5 3 7 -4 12 -2 12 4 0 7 7 9 15 6 9 -3 18 1 22 10 5 13 7
13 14 2 7 -10 9 -9 9 4 0 13 7 10 29 -13 29 -29 61 -39 61 -19 0 6 -7 24 -15
39 -14 28 -14 29 13 36 15 4 30 11 33 17 4 6 12 3 22 -6 10 -10 18 -12 22 -6
3 5 16 10 28 9 20 -1 20 -2 -3 -9 l-25 -8 28 -1 c15 -1 27 4 27 9 0 21 20 8
75 -45 48 -48 75 -66 75 -50 0 20 -188 224 -206 225 -18 0 -24 26 -11 43 10
12 22 13 67 6 125 -21 314 -31 367 -19 29 6 53 15 53 19 0 10 66 38 107 45 22
4 39 -1 55 -14 30 -23 99 -17 124 11 9 11 21 19 26 19 10 0 -41 -78 -86 -131
-17 -20 -44 -55 -60 -78 -17 -22 -35 -41 -42 -41 -6 0 -44 -25 -85 -55 -41
-30 -117 -77 -168 -106 -52 -28 -116 -66 -141 -84 -65 -46 -96 -60 -164 -74
-33 -7 -78 -21 -101 -31 -23 -10 -84 -28 -136 -40 -75 -18 -159 -52 -159 -63
0 -1 49 -1 110 1 96 4 110 2 110 -12 0 -9 8 -16 20 -16 11 0 20 5 20 11 0 7
10 9 25 5 31 -8 161 13 199 31 16 8 40 27 53 41 l25 27 -7 -80 c-5 -54 -14
-88 -26 -104 -18 -23 -18 -24 5 -42 32 -26 36 -24 37 14 l1 32 9 -30 c7 -27 8
-26 4 10 -2 22 -6 51 -10 65 -5 19 -1 28 16 38 21 13 22 13 16 -17 -4 -17 -3
-31 1 -31 4 0 12 -10 17 -22 10 -24 18 -25 164 -15 33 2 43 -6 55 -45 5 -15
18 -18 91 -18 47 0 85 3 85 8 -1 9 -75 55 -96 58 -60 9 -2 51 84 59 75 8 102
19 102 40 0 8 4 15 9 15 4 0 7 -12 4 -28 -2 -15 5 -4 15 23 14 41 122 214 162
262 5 7 10 19 10 28 0 8 5 15 10 15 6 0 10 6 8 13 -4 20 21 59 74 113 27 28
48 55 46 60 -2 5 0 9 3 9 3 0 14 6 23 14 13 11 24 12 54 3 20 -6 66 -18 102
-26 36 -8 124 -29 197 -47 72 -17 138 -29 145 -27 7 3 -32 15 -87 27 -110 25
-215 52 -215 56 0 2 13 17 30 35 16 17 39 49 52 70 33 55 152 220 182 252 15
15 43 32 64 37 77 20 145 31 190 31 26 0 65 5 87 10 25 6 44 5 49 0 6 -6 44
-10 86 -10 69 0 78 -3 117 -33 39 -30 146 -146 240 -260 24 -29 57 -81 75
-117 17 -36 52 -96 77 -133 37 -56 42 -70 30 -78 -8 -5 -27 -6 -43 -3 -28 6
-29 5 -14 -10 9 -9 20 -16 25 -16 5 0 20 -12 33 -28 14 -15 36 -35 50 -45 l25
-18 -50 6 c-27 4 -71 13 -97 20 -27 8 -48 10 -48 6 0 -10 88 -35 174 -50 33
-6 109 -11 169 -11 105 0 109 1 94 18 -13 14 -15 30 -11 73 7 65 -12 50 -22
-19 -6 -41 -7 -42 -25 -26 -11 9 -19 24 -19 33 -1 9 -7 27 -14 40 -21 37 -277
291 -294 291 -8 0 -72 58 -141 128 -127 130 -228 242 -217 242 3 0 24 -13 47
-29 22 -17 64 -37 92 -47 29 -9 72 -27 97 -39 25 -13 63 -28 85 -34 l40 -11
-40 35 c-22 19 -43 34 -47 35 -5 0 -8 4 -8 9 0 13 35 20 113 22 37 1 67 6 67
12 0 5 12 6 27 2 16 -4 25 -3 21 0 -9 10 17 35 35 35 8 0 20 6 26 14 10 11 8
17 -6 25 -10 6 -13 11 -8 11 6 0 3 5 -5 10 -13 8 -12 10 3 10 9 0 17 5 17 10
0 6 5 10 11 10 11 0 128 -87 141 -105 4 -5 8 -6 8 -2 0 5 -9 22 -20 37 l-21
29 24 15 c12 9 37 21 55 27 29 10 37 23 33 55 -2 18 20 30 75 43 44 11 51 16
60 44 8 28 13 32 44 32 31 0 37 5 55 43 18 38 26 44 84 62 35 11 70 20 78 20
8 0 38 11 68 25 38 18 52 30 48 40 -3 9 1 16 8 16 8 1 -2 5 -21 9 l-35 7 47
21 c65 31 119 39 218 32 78 -5 86 -3 109 17 13 13 31 23 39 23 8 0 30 11 48
25 18 14 41 25 51 25 19 0 53 32 53 51 0 6 24 36 53 67 30 31 73 92 96 135 24
43 57 97 75 120 88 118 174 268 261 455 40 86 92 191 116 232 80 141 138 281
184 444 10 37 26 67 41 78 13 11 24 24 24 29 0 10 -80 53 -86 46 -3 -2 9 -10
25 -17 38 -15 61 -40 38 -40 -23 0 -163 58 -320 134 -76 36 -142 66 -146 66
-5 0 -15 10 -23 22 -10 16 -25 22 -48 23 -34 0 -56 25 -23 25 13 1 11 5 -10
16 l-28 15 36 35 c20 19 41 34 46 34 6 0 8 4 5 9 -3 5 9 25 27 45 27 29 41 36
70 36 20 0 39 5 43 12 5 8 2 9 -10 5 -10 -4 -22 -5 -27 -2 -13 9 20 55 40 55
9 1 30 7 46 16 30 14 30 14 3 9 -26 -5 -24 -2 20 40 75 73 320 233 470 307 57
28 102 56 102 64 0 11 -10 8 -37 -9 -21 -13 -83 -48 -138 -77 -55 -29 -118
-66 -140 -81 -22 -15 -85 -56 -140 -91 -55 -36 -131 -93 -169 -129 -37 -35
-94 -88 -125 -117 -65 -61 -207 -172 -220 -172 -5 0 -35 -34 -66 -75 -32 -41
-99 -109 -149 -150 -50 -42 -125 -105 -166 -141 -41 -36 -115 -92 -163 -124
-48 -32 -83 -61 -78 -65 6 -3 25 2 43 11 l32 17 -29 -36 c-17 -20 -35 -36 -42
-36 -6 -1 -14 -5 -17 -10 -12 -18 105 -11 145 9 46 24 53 25 45 5 -4 -12 0
-14 22 -9 40 9 67 29 99 71 15 21 36 44 45 51 10 7 18 26 18 41 0 15 9 36 20
46 10 9 44 69 75 131 54 112 106 182 168 226 l29 21 -7 -32 c-4 -17 -36 -92
-71 -167 -35 -74 -64 -138 -64 -142 0 -4 17 18 37 48 20 30 72 90 116 133 51
51 77 83 73 93 -4 11 -1 14 14 10 11 -3 30 -9 43 -12 12 -4 46 -17 75 -30 29
-13 54 -24 57 -24 2 0 38 -19 80 -41 50 -27 72 -44 64 -49 -10 -7 -56 8 -121
41 -26 13 -31 11 -23 -8 16 -39 15 -73 -2 -73 -13 0 -14 -3 -6 -11 14 -14 6
-39 -13 -39 -8 0 -14 -4 -14 -10 0 -14 76 -60 98 -60 21 0 43 -35 45 -74 1
-15 8 -26 16 -26 21 0 -15 -32 -56 -50 -18 -8 -33 -19 -33 -25 0 -7 -3 -7 -8
0 -17 24 -81 47 -67 25 3 -5 -1 -10 -9 -10 -10 0 -16 -9 -16 -25 0 -14 -4 -25
-9 -25 -5 0 -11 -12 -13 -27 -2 -20 -9 -29 -26 -31 -19 -3 -21 -6 -11 -19 10
-12 10 -16 0 -23 -8 -4 -10 -13 -7 -19 5 -7 -1 -10 -15 -8 -20 2 -24 -5 -35
-58 -16 -78 -29 -111 -62 -159 -14 -21 -27 -45 -28 -53 -3 -19 -8 -24 -31 -27
-10 -2 -22 -15 -28 -34 -5 -18 -13 -32 -17 -32 -4 0 -8 -13 -8 -29 0 -15 -11
-50 -25 -76 -14 -26 -24 -53 -22 -59 2 -6 1 -23 -4 -38 -6 -22 -4 -26 9 -22
11 4 10 1 -3 -7 -11 -7 -24 -14 -30 -15 -5 0 -15 -2 -22 -2 -6 -1 -13 -14 -15
-29 -4 -33 -24 -32 -21 0 1 19 0 18 -10 -5 -6 -14 -19 -29 -30 -32 -13 -3 -17
-10 -12 -24 6 -22 -7 -35 -42 -39 -17 -3 -22 2 -25 21 -4 34 -31 18 -30 -18 0
-31 -5 -32 -34 -5 l-22 20 -20 -25 c-11 -14 -25 -26 -31 -26 -7 0 -11 -23 -11
-60 l0 -59 -47 -7 c-46 -6 -49 -9 -70 -55 -13 -26 -23 -55 -23 -63 0 -15 -45
-66 -57 -66 -4 0 -14 -6 -22 -14 -9 -8 -32 -19 -51 -24 -19 -5 -34 -14 -33
-21 2 -6 0 -11 -5 -11 -9 0 -37 42 -34 53 3 10 -10 9 -27 -2 -8 -5 -11 -16 -8
-24 3 -9 0 -14 -11 -13 -16 1 -18 -3 -21 -39 -1 -19 -50 -9 -68 14 -7 9 -13
11 -13 5 0 -6 7 -17 15 -24 13 -11 13 -15 3 -21 -7 -5 -20 -9 -28 -9 -11 0
-12 2 -3 8 7 4 9 13 4 21 -10 16 -31 6 -31 -14 0 -8 -12 -13 -35 -12 -23 1
-32 4 -25 11 16 16 12 26 -10 26 -13 0 -22 9 -26 25 -3 14 -11 25 -16 25 -6 0
-7 -10 -4 -22 20 -75 20 -76 -8 -43 -14 17 -26 33 -26 37 0 3 -13 9 -30 13
-16 4 -33 12 -37 19 -5 7 -16 15 -25 19 -19 7 -25 43 -7 49 14 5 0 38 -16 38
-7 0 -16 6 -19 13 -3 6 -3 -6 1 -28 3 -22 14 -54 24 -70 l18 -31 -44 -41 c-25
-23 -45 -48 -45 -55 0 -9 -3 -9 -8 -2 -4 6 -15 13 -24 17 -10 3 -18 15 -18 25
0 10 -5 23 -12 30 -7 7 -8 12 -2 12 5 0 2 5 -6 10 -10 6 -11 10 -2 10 6 0 12
6 12 13 0 14 37 17 56 5 6 -4 19 3 29 14 14 17 15 25 6 39 -30 49 -40 151 -20
202 12 28 39 38 39 13 0 -7 6 -26 14 -41 l15 -28 6 39 c13 82 13 84 -4 85 -13
0 -14 1 -1 6 8 3 34 13 57 24 54 24 61 24 37 -2 -15 -16 -16 -21 -4 -19 38 6
57 -2 74 -31 10 -17 20 -28 23 -25 3 3 -4 17 -16 32 -20 26 -29 60 -13 50 10
-6 24 4 38 29 7 12 23 21 41 22 l30 1 -9 -56 c-5 -31 -7 -70 -5 -87 l3 -30 11
25 c9 19 12 21 12 7 1 -10 5 -16 10 -13 5 3 6 26 4 50 -7 56 4 107 17 85 7
-10 11 -6 16 19 5 27 40 63 48 50 24 -37 36 -62 47 -96 7 -23 15 -42 19 -42 8
0 20 75 20 126 0 33 -12 45 -25 24 -3 -6 -16 -10 -28 -9 -16 0 -8 7 27 25 28
13 53 24 57 24 13 0 14 -54 2 -80 -15 -30 -17 -76 -3 -85 6 -3 13 1 16 10 5
11 10 13 19 5 9 -8 14 -6 19 6 9 24 7 54 -4 54 -5 0 -10 22 -10 48 0 41 4 51
28 69 15 11 39 24 52 28 l25 7 -22 -21 c-26 -25 -28 -43 -9 -86 l13 -30 6 37
c9 61 35 103 76 126 21 12 47 22 57 22 18 -1 18 -1 2 -14 -21 -16 -23 -26 -5
-26 20 0 56 45 48 59 -6 9 -17 8 -52 -4 -24 -9 -82 -27 -129 -40 -47 -13 -116
-38 -155 -56 -76 -35 -80 -36 -174 -74 -36 -14 -68 -25 -73 -25 -5 0 -50 -20
-101 -44 -50 -24 -103 -47 -116 -51 -13 -4 -49 -22 -80 -39 -31 -18 -85 -43
-121 -56 -36 -13 -68 -28 -71 -33 -4 -5 -12 -6 -19 -2 -7 5 -11 4 -7 -1 3 -5
-37 -10 -91 -11 -54 0 -149 -4 -212 -7 -63 -3 -119 -6 -125 -6 -5 0 -41 4 -80
10 -38 6 -80 8 -92 5 -25 -6 -30 4 -11 23 9 9 6 12 -16 12 l-28 0 24 29 c28
36 95 61 163 61 28 0 55 4 61 8 16 15 90 32 134 32 24 0 40 3 37 7 -10 9 -218
4 -231 -6 -6 -5 -39 -19 -74 -31 -69 -25 -118 -68 -131 -115 l-8 -30 -7 32
c-6 27 -11 31 -24 24 -9 -4 -47 -11 -84 -14 -79 -7 -82 -4 -93 84 -8 67 -48
136 -102 175 -96 70 -173 163 -173 209 0 8 16 37 36 65 44 61 43 96 -3 125
-36 22 -37 35 -4 51 13 7 28 17 34 23 6 6 19 11 29 11 10 0 18 4 18 9 0 6 26
31 58 57 31 25 102 88 157 139 55 50 143 130 196 177 52 48 128 123 169 168
40 45 90 90 111 100 20 11 47 32 58 48 11 16 121 121 243 234 352 324 402 368
416 368 7 0 64 51 125 114 62 62 189 185 282 271 94 87 201 191 239 232 38 40
72 73 76 73 4 0 13 -14 20 -30 7 -17 15 -28 18 -26 2 3 21 -7 40 -22 l36 -27
-21 31 c-12 17 -29 37 -38 44 -30 25 -16 53 64 132 44 43 85 78 91 78 6 0 8
-5 5 -11 -4 -6 11 -1 33 10 33 17 52 20 99 15 55 -5 62 -3 138 40 76 44 131
92 166 146 9 14 19 23 22 20 7 -7 -69 -131 -127 -208 -64 -84 -336 -342 -360
-342 -19 0 -19 0 -1 -13 26 -20 4 -29 -29 -11 -40 20 -46 17 -11 -5 49 -32
101 -16 182 55 92 80 239 230 276 281 17 24 32 41 34 39 3 -2 -3 -25 -11 -50
-18 -53 -21 -100 -6 -91 12 7 80 144 80 160 0 6 11 27 25 47 18 26 28 60 35
110 22 174 5 145 196 333 211 209 301 313 354 417 50 95 61 129 48 151 -6 12
-5 17 3 17 8 0 8 5 -2 16 -12 14 -8 20 24 46 l37 30 0 920 c0 851 -1 922 -17
949 l-17 29 -566 0 c-451 -1 -573 -4 -603 -15z m-509 -745 c-13 -20 -28 -27
-28 -12 0 10 22 32 32 32 5 0 3 -9 -4 -20z m527 -360 c-3 -5 -11 -10 -16 -10
-6 0 -7 5 -4 10 3 6 11 10 16 10 6 0 7 -4 4 -10z m0 -82 c12 -34 13 -68 3 -62
-4 3 -6 10 -3 15 4 5 -1 12 -9 15 -17 6 -23 54 -7 54 5 0 12 -10 16 -22z m59
-13 c3 -8 1 -15 -4 -15 -6 0 -10 7 -10 15 0 8 2 15 4 15 2 0 6 -7 10 -15z
m-117 -17 c-3 -8 -6 -5 -6 6 -1 11 2 17 5 13 3 -3 4 -12 1 -19z m151 -35 c18
-4 20 -8 10 -14 -20 -13 -35 -11 -42 6 -6 17 -2 18 32 8z m-58 -29 c0 -8 -4
-12 -10 -9 -5 3 -10 10 -10 16 0 5 5 9 10 9 6 0 10 -7 10 -16z m1080 -50 c0
-8 -5 -12 -10 -9 -6 4 -8 11 -5 16 9 14 15 11 15 -7z m-910 -34 c8 -5 11 -10
5 -10 -5 0 -17 5 -25 10 -8 5 -10 10 -5 10 6 0 17 -5 25 -10z m-220 -34 c0 -3
-4 -8 -10 -11 -5 -3 -10 -1 -10 4 0 6 5 11 10 11 6 0 10 -2 10 -4z m155 -6 c4
-6 11 -8 16 -5 5 4 9 2 9 -3 0 -17 -31 -22 -45 -8 -8 7 -11 16 -8 20 9 9 21 7
28 -4z m-180 -19 c3 -5 1 -12 -5 -16 -5 -3 -10 1 -10 9 0 18 6 21 15 7z m-455
-26 c13 -14 19 -25 13 -25 -6 0 -18 11 -27 25 -9 14 -15 25 -13 25 2 0 14 -11
27 -25z m490 17 c0 -4 -7 -18 -17 -31 -13 -19 -14 -28 -5 -42 9 -15 9 -17 -2
-13 -8 3 -17 1 -21 -5 -13 -22 -27 -11 -22 18 8 39 67 104 67 73z m934 -27
c-4 -9 0 -15 10 -15 9 0 16 -7 16 -15 0 -8 -7 -15 -15 -15 -9 0 -18 7 -21 15
-6 15 1 45 10 45 3 0 3 -7 0 -15z m-1387 -17 c-3 -8 -6 -5 -6 6 -1 11 2 17 5
13 3 -3 4 -12 1 -19z m353 -14 c0 -13 -8 -28 -17 -33 -10 -6 -12 -11 -5 -11 6
0 12 -6 12 -14 0 -8 7 -16 15 -20 8 -3 15 -1 15 3 0 5 13 14 29 19 26 9 32 8
45 -12 19 -29 10 -66 -15 -66 -11 0 -19 5 -19 10 0 6 -10 10 -22 10 l-21 0 22
-19 c24 -21 19 -54 -8 -47 -9 2 -39 7 -66 11 -46 6 -52 4 -78 -23 l-28 -30 18
-33 c10 -19 29 -50 43 -69 25 -35 60 -142 63 -192 1 -16 6 -28 11 -28 4 0 5
-8 2 -17 -4 -9 -1 -20 6 -25 8 -5 2 -8 -17 -8 -41 0 -106 -53 -87 -71 7 -7 12
-9 12 -3 0 6 13 10 30 9 16 -1 27 2 24 7 -3 4 2 8 12 8 18 0 58 -40 48 -49 -3
-3 -12 2 -19 12 -13 18 -14 18 -35 -3 -17 -17 -19 -24 -9 -36 9 -10 9 -18 2
-25 -7 -7 -8 -22 -2 -42 5 -18 9 -42 9 -55 0 -19 -3 -21 -17 -14 -18 10 -49
-10 -39 -26 2 -4 -3 -18 -13 -31 l-17 -23 -27 41 c-15 23 -31 41 -36 41 -5 0
-12 18 -16 40 -4 22 -11 40 -16 40 -5 0 -9 6 -9 14 0 8 -6 21 -13 28 -7 7 -18
24 -24 38 l-12 25 -1 -30 c-1 -28 -2 -29 -10 -7 -5 12 -7 28 -4 36 8 21 -15
96 -37 119 -12 14 -19 16 -19 7 0 -7 -2 -11 -5 -8 -3 3 -8 56 -10 119 -3 63
-8 129 -11 148 -4 23 2 51 18 88 22 52 24 54 56 48 21 -4 32 -2 32 6 0 14 82
138 91 139 3 0 10 -30 15 -67 10 -74 31 -89 26 -19 -2 24 1 47 7 51 6 3 11 2
11 -3 0 -6 9 -8 20 -5 14 4 17 9 11 21 -12 22 15 49 50 49 24 0 29 -5 29 -23z
m277 0 c-3 -3 -12 -4 -19 -1 -8 3 -5 6 6 6 11 1 17 -2 13 -5z m-13 -31 c2 7 5
4 5 -5 1 -10 9 -18 19 -19 11 0 8 -5 -11 -13 -15 -7 -24 -15 -21 -19 4 -4 3
-7 -3 -7 -5 0 -18 10 -29 22 -16 19 -16 20 -1 9 27 -21 33 -4 6 19 l-24 20 27
-9 c19 -7 28 -7 32 2z m-649 -94 l-15 -34 5 48 c6 58 19 83 23 46 2 -15 -4
-42 -13 -60z m-35 21 c0 -54 -14 -65 -31 -26 -9 20 -8 29 7 50 11 14 20 26 22
26 1 0 2 -22 2 -50z m827 28 c-2 -7 2 -21 11 -31 8 -9 12 -20 7 -25 -4 -4 -10
-1 -12 6 -4 9 -8 10 -18 2 -9 -8 -15 -8 -20 0 -3 5 -14 10 -24 10 -18 0 -35
33 -23 44 3 3 23 6 45 6 27 0 37 -4 34 -12z m132 -114 c-10 -19 -14 -34 -9
-34 6 0 10 -9 10 -20 0 -24 -8 -25 -36 -2 -26 21 -37 69 -18 76 8 3 14 0 14
-6 0 -7 5 -6 15 2 8 7 13 16 10 20 -3 5 4 6 14 3 19 -5 19 -5 0 -39z m668
-281 c-4 -3 -2 -12 3 -18 7 -9 5 -17 -7 -26 -15 -13 -16 -12 -11 9 4 12 2 22
-4 22 -5 0 -6 5 -3 10 3 6 11 10 17 10 6 0 8 -3 5 -7z m-1550 -308 c24 -94 38
-229 21 -219 -10 6 -25 -24 -32 -66 -13 -73 -18 -100 -22 -100 -8 0 -91 45
-106 58 -9 8 -25 11 -36 8 -17 -6 -22 1 -33 46 -14 58 -19 345 -6 391 9 33 67
99 122 139 l40 29 13 -93 c7 -51 24 -138 39 -193z m1463 195 c0 -5 -7 -10 -16
-10 -8 0 -12 5 -9 10 3 6 10 10 16 10 5 0 9 -4 9 -10z m-1134 -35 c14 -13 14
-15 1 -15 -25 0 -47 11 -41 21 8 13 23 11 40 -6z m-169 -277 c-3 -8 -6 -5 -6
6 -1 11 2 17 5 13 3 -3 4 -12 1 -19z m290 -464 c24 -20 42 -42 39 -49 -2 -7 0
-17 5 -22 6 -6 -3 -20 -22 -39 -21 -19 -33 -25 -36 -16 -3 6 -18 12 -35 12
-21 0 -31 6 -35 19 -3 11 -10 18 -17 15 -6 -2 -25 9 -41 26 l-30 31 25 19 c28
22 40 25 40 10 0 -7 7 -7 21 1 17 9 19 13 8 20 -10 6 -8 9 10 9 13 0 44 -16
68 -36z m453 12 c0 -2 -7 -7 -16 -10 -8 -3 -12 -2 -9 4 6 10 25 14 25 6z
m-262 -188 c-5 -16 -48 -24 -48 -10 0 11 17 20 38 21 8 1 12 -5 10 -11z m-48
-282 c0 -3 -4 -8 -10 -11 -5 -3 -10 -1 -10 4 0 6 5 11 10 11 6 0 10 -2 10 -4z
m-68 -58 c-11 -13 -36 -32 -54 -42 -39 -23 -37 -20 20 28 49 41 66 47 34 14z
m-367 -1554 c-19 -16 -19 -16 8 -12 34 6 34 -5 2 -37 -15 -16 -36 -25 -55 -25
-36 0 -39 13 -5 28 14 6 25 18 25 25 0 16 20 37 35 37 5 0 1 -8 -10 -16z
m-2195 -477 c0 -19 -21 -37 -44 -37 -18 0 -18 1 4 25 26 28 40 32 40 12z
m-192 -342 c38 -89 53 -143 46 -171 -6 -24 5 -25 -206 27 -73 18 -136 17 -148
-2 -3 -5 -16 -6 -28 -3 -20 6 -21 8 -7 34 8 16 63 69 122 118 60 50 124 108
143 129 l34 38 7 -50 c3 -28 20 -82 37 -120z m-743 66 c-39 -26 -90 -31 -90
-11 0 15 38 26 95 29 25 1 25 0 -5 -18z m5 -122 c0 -5 -9 -9 -19 -9 -11 0 -26
-3 -35 -6 -10 -4 -16 -1 -16 7 0 9 13 15 35 16 19 1 35 -3 35 -8z m970 -63 c0
-2 -7 -7 -16 -10 -8 -3 -12 -2 -9 4 6 10 25 14 25 6z m-45 -26 c3 -5 1 -10 -4
-10 -6 0 -11 5 -11 10 0 6 2 10 4 10 3 0 8 -4 11 -10z m-590 -10 c-3 -5 -12
-10 -18 -10 -7 0 -6 4 3 10 19 12 23 12 15 0z m-608 -56 c-3 -3 -12 -4 -19 -1
-8 3 -5 6 6 6 11 1 17 -2 13 -5z m2577 -146 c5 -22 3 -26 -9 -22 -25 10 -42
119 -22 143 10 12 13 4 18 -40 4 -30 9 -66 13 -81z m-2701 91 c12 -7 48 -34
80 -60 44 -37 67 -49 92 -49 23 0 51 -13 96 -46 34 -26 77 -53 96 -60 31 -13
45 -34 23 -34 -5 0 -7 -6 -4 -14 6 -15 -26 -78 -43 -83 -6 -2 -14 5 -18 16 -5
18 -9 19 -26 8 -12 -7 -17 -18 -13 -27 10 -24 13 -60 5 -60 -5 0 -22 14 -39
30 -18 17 -40 30 -50 30 -10 0 -27 7 -38 15 -10 8 -26 15 -35 15 -9 0 -28 9
-42 20 -14 11 -34 20 -44 20 -10 0 -38 20 -62 44 l-43 44 16 33 c9 17 16 39
15 48 0 10 -2 12 -6 4 -8 -20 -25 -15 -19 5 7 22 -33 65 -50 54 -20 -13 -22
-37 -5 -56 15 -18 15 -18 -9 -11 -30 9 -52 25 -48 36 6 16 112 89 130 89 11 0
29 -5 41 -11z m2630 -61 c2 -24 8 -52 12 -63 4 -11 3 -15 -2 -9 -4 6 -20 14
-34 17 -24 6 -26 4 -21 -20 3 -18 1 -24 -7 -19 -7 5 -11 -2 -11 -18 0 -14 5
-28 10 -31 6 -4 8 -11 4 -16 -3 -5 0 -8 8 -7 7 2 14 -8 16 -22 2 -14 9 -28 16
-32 7 -5 7 -8 0 -8 -6 0 -10 -13 -9 -30 2 -35 -1 -36 -28 -12 -20 16 -20 16
-14 -3 7 -20 7 -20 -8 -1 -8 11 -18 17 -21 13 -13 -12 -33 28 -34 65 0 24 -8
47 -22 63 -21 25 -58 34 -58 15 0 -16 -56 -12 -70 5 -11 14 -14 13 -27 -5 -17
-24 -33 -26 -33 -3 0 14 -4 13 -23 -5 -22 -21 -24 -21 -38 -5 -24 30 -40 63
-35 72 3 4 22 7 43 6 21 -2 43 1 48 5 6 5 27 11 48 15 33 6 36 5 30 -11 -4
-12 -3 -15 5 -10 7 4 12 13 12 21 0 16 39 31 50 18 4 -4 10 -17 13 -28 5 -19
5 -18 12 4 6 17 29 33 79 56 39 18 74 31 77 29 4 -2 9 -23 12 -46z m-2441 -20
c-12 -12 -24 -19 -28 -15 -4 3 4 15 17 26 31 25 39 17 11 -11z m1721 11 c11
-7 45 -12 74 -12 62 0 78 -11 30 -21 l-32 -7 30 -13 30 -13 -40 -5 c-22 -3
-66 -13 -98 -22 -38 -10 -64 -13 -75 -7 -13 7 -7 12 28 22 28 8 38 14 27 16
-9 3 -15 8 -12 13 3 4 -3 6 -14 3 -23 -6 -34 10 -26 37 7 23 44 27 78 9z m217
-109 c4 0 11 8 16 18 6 14 8 12 14 -13 l8 -30 1 28 c1 28 15 37 24 14 7 -20
-4 -107 -14 -107 -5 0 -9 3 -9 8 0 14 -56 72 -69 72 -11 0 -11 -3 -1 -15 10
-12 10 -15 -1 -16 -12 0 -12 -1 0 -6 11 -5 11 -7 0 -14 -10 -6 -6 -9 12 -9 34
0 59 -27 38 -41 -12 -7 -12 -9 1 -9 8 0 33 -16 55 -35 l40 -34 -31 -1 c-17 0
-77 -14 -135 -31 -81 -23 -110 -37 -130 -60 -36 -41 -49 -38 -37 9 12 45 13
68 3 108 -7 30 -5 31 47 52 29 11 44 21 33 22 -16 0 -17 2 -5 10 21 13 5 23
-18 11 -12 -6 -31 -11 -44 -11 -19 0 -20 2 -8 10 11 8 8 9 -12 4 -25 -5 -28
-3 -28 19 0 21 7 28 38 38 20 6 43 16 49 21 7 6 39 12 70 14 32 2 52 1 46 -2
-20 -9 -15 -24 8 -24 14 0 19 5 16 14 -3 8 -3 17 1 21 4 4 8 -3 10 -14 2 -12
7 -21 12 -21z m585 20 c-3 -5 -10 -10 -16 -10 -5 0 -9 5 -9 10 0 6 7 10 16 10
8 0 12 -4 9 -10z m20 -20 c3 -5 1 -10 -4 -10 -6 0 -11 5 -11 10 0 6 2 10 4 10
3 0 8 -4 11 -10z m-2145 -73 c113 -71 147 -108 98 -107 -13 1 -59 21 -103 45
-44 25 -101 55 -127 67 -27 13 -48 28 -48 34 0 11 36 32 55 33 6 0 62 -32 125
-72z m1248 30 c29 -30 62 -101 62 -133 0 -21 -37 -17 -43 5 -4 15 -12 18 -48
14 -24 -2 -48 -9 -53 -14 -6 -5 -19 -9 -31 -9 -12 0 -26 -5 -32 -11 -8 -8 -13
-8 -17 0 -4 6 -2 11 4 11 17 0 98 39 105 50 3 5 3 16 -2 23 -18 29 -13 44 15
40 23 -3 24 -2 7 6 -11 5 -35 15 -52 23 -45 18 -41 28 10 28 35 0 49 -6 75
-33z m-88 -56 c0 -25 -53 -57 -107 -65 -23 -3 -50 -9 -60 -12 -16 -6 -16 -5 2
12 55 51 109 79 110 57 0 -24 14 -24 32 1 22 31 23 31 23 7z m-1273 -22 c18
-12 40 -37 48 -56 19 -46 19 -53 -4 -53 -31 0 -35 -19 -7 -30 35 -13 33 -21
-4 -13 -33 6 -39 -6 -15 -31 23 -22 19 -40 -7 -31 -13 4 -35 9 -50 12 -35 7
-35 13 1 47 29 27 45 83 34 112 -3 9 -16 20 -29 25 -24 9 -34 39 -13 39 7 0
27 -9 46 -21z m-27 -39 c0 -5 -2 -10 -4 -10 -3 0 -8 5 -11 10 -3 6 -1 10 4 10
6 0 11 -4 11 -10z m2240 -20 c-8 -5 -19 -10 -25 -10 -5 0 -3 5 5 10 8 5 20 10
25 10 6 0 3 -5 -5 -10z m-2002 -54 c35 -14 68 -26 73 -26 18 0 116 -50 129
-65 9 -11 9 -18 -4 -30 -25 -25 -20 -68 11 -95 18 -15 23 -25 15 -28 -18 -6
-70 17 -85 37 -16 22 -73 62 -79 55 -3 -2 -11 2 -18 11 -7 8 -18 15 -25 15 -6
0 -22 9 -34 19 -13 11 -28 18 -35 15 -15 -6 -58 34 -50 47 3 5 -1 21 -10 34
-9 13 -16 33 -16 44 0 19 2 20 33 7 17 -8 60 -26 95 -40z m-392 -33 c47 -27
110 -62 141 -80 l57 -31 -104 5 c-146 7 -260 41 -260 78 0 11 66 73 78 75 2 0
42 -21 88 -47z m1771 -9 c-3 -3 -12 -4 -19 -1 -8 3 -5 6 6 6 11 1 17 -2 13 -5z
m-2331 -61 c8 -21 19 -60 25 -87 9 -50 3 -64 -68 -146 -7 -8 -41 -48 -74 -87
-66 -78 -93 -90 -109 -48 -10 26 -3 201 9 221 6 11 192 184 198 184 1 0 10
-17 19 -37z m2204 -5 c0 -4 -5 -8 -11 -8 -9 0 -7 -66 6 -212 4 -49 -19 -58
-33 -12 -8 27 -7 34 4 34 11 0 13 15 10 76 -3 41 -10 82 -16 89 -17 20 -5 44
19 42 12 -1 21 -5 21 -9z m-955 -78 c9 -15 -44 -45 -57 -32 -17 17 -1 42 26
42 14 0 27 -4 31 -10z m-1145 -104 c0 -2 -8 -10 -17 -17 -16 -13 -17 -12 -4 4
13 16 21 21 21 13z m2565 -25 c-6 -5 -21 -12 -35 -15 l-25 -7 25 15 c28 17 50
21 35 7z m135 -15 c0 -17 -7 -27 -22 -32 -13 -4 -34 -16 -49 -26 -23 -17 -36
-19 -108 -13 -44 4 -81 11 -81 16 0 13 36 29 67 29 15 0 51 11 78 24 28 14 65
25 83 25 27 1 32 -2 32 -23z m-2790 -59 c-31 -29 -76 -67 -100 -86 -25 -18 -2
7 50 57 52 49 97 88 100 85 3 -3 -20 -28 -50 -56z m113 47 c-5 -13 1 -15 36
-13 36 3 46 -1 72 -29 20 -22 39 -32 59 -32 16 0 32 -4 35 -10 3 -5 1 -10 -5
-10 -6 0 -14 -10 -19 -22 -7 -20 -15 -22 -97 -24 -66 -1 -114 -9 -186 -32
-128 -39 -138 -29 -54 55 66 66 146 133 158 133 4 0 5 -7 1 -16z m2997 -17 c0
-21 -39 -39 -71 -32 -35 8 -29 25 9 25 15 0 34 5 42 10 19 12 20 12 20 -3z
m-486 -73 c8 -21 -2 -33 -13 -15 -10 15 -43 11 -49 -6 -2 -8 5 -13 17 -13 12
0 21 -5 21 -11 0 -6 -11 -8 -28 -4 -20 4 -35 0 -51 -14 l-24 -21 -31 27 c-17
14 -30 30 -28 35 3 12 -11 10 -95 -17 -75 -23 -116 -27 -57 -5 94 36 184 44
200 19 9 -15 34 -10 34 7 0 10 -6 14 -15 10 -8 -3 -15 -3 -15 0 0 10 46 23 86
23 30 1 44 -4 48 -15z m-424 -45 c11 -19 9 -20 -17 -17 -17 2 -29 10 -31 21
-5 25 35 22 48 -4z m440 -4 c0 -8 -4 -15 -10 -15 -5 0 -7 7 -4 15 4 8 8 15 10
15 2 0 4 -7 4 -15z m-2805 -55 c-3 -5 -16 -15 -28 -21 -22 -12 -22 -12 -3 10
19 21 43 30 31 11z m524 -4 c16 -9 43 -13 67 -10 143 18 187 16 284 -14 103
-32 155 -46 240 -62 30 -6 62 -15 70 -20 26 -16 -4 -33 -57 -31 -26 0 -106
-11 -176 -26 -111 -23 -132 -25 -163 -14 -56 20 -302 -3 -442 -42 -65 -18
-110 -10 -186 33 -29 17 -60 30 -69 30 -13 0 -16 10 -15 45 0 24 6 49 12 54
28 23 146 52 244 60 159 12 161 12 191 -3z m-722 -181 c0 -62 -16 -86 -74
-110 -24 -10 -34 -11 -41 -2 -13 16 -26 111 -15 104 5 -3 22 3 39 14 16 10 39
19 52 19 13 0 22 6 22 15 0 8 4 15 9 15 4 0 8 -25 8 -55z m1792 9 c-7 -9 -39
-29 -70 -44 -31 -15 -67 -34 -80 -43 -29 -21 -51 -22 -25 -2 28 21 12 19 -33
-5 -21 -10 -41 -25 -44 -33 -3 -8 -15 -17 -26 -20 -13 -3 -19 -1 -15 5 3 5 -8
2 -25 -6 -23 -12 -36 -14 -50 -6 -33 17 -111 -6 -169 -50 -29 -22 -52 -36 -52
-31 0 5 7 15 16 22 9 7 31 36 48 64 44 67 61 81 81 65 13 -10 19 -10 33 2 32
28 114 47 207 47 83 0 178 21 202 45 13 13 15 5 2 -10z m-364 -34 c3 -6 -4
-10 -17 -10 -18 0 -20 2 -8 10 19 12 18 12 25 0z m-1335 -190 c0 -5 -5 -10
-11 -10 -5 0 -7 5 -4 10 3 6 8 10 11 10 2 0 4 -4 4 -10z m1180 -241 c-25 -21
-76 -58 -115 -81 -38 -22 -79 -48 -90 -57 l-20 -16 20 24 20 24 -27 -5 c-45
-8 -33 16 20 41 26 13 83 42 127 66 100 54 123 56 65 4z m-501 -240 c-6 -24
-14 -38 -16 -32 -5 15 17 87 24 80 2 -3 -1 -25 -8 -48z"/>
<path d="M4780 6459 c0 -5 5 -7 10 -4 6 3 10 8 10 11 0 2 -4 4 -10 4 -5 0 -10
-5 -10 -11z"/>
<path d="M4774 5159 c-4 -7 -1 -10 7 -7 23 9 49 -11 49 -37 0 -14 5 -25 11
-25 6 0 9 7 5 15 -3 8 0 15 6 15 6 0 1 11 -12 25 -25 26 -54 33 -66 14z"/>
<path d="M1004 1975 c8 -8 18 -15 22 -15 3 0 1 7 -6 15 -7 8 -17 15 -22 15 -5
0 -3 -7 6 -15z"/>
<path d="M3550 1943 c0 -12 5 -25 10 -28 13 -8 13 15 0 35 -8 12 -10 11 -10
-7z"/>
<path d="M3560 1733 c0 -21 3 -24 9 -14 5 8 7 20 4 28 -8 21 -13 15 -13 -14z"/>
<path d="M2920 1281 c0 -5 5 -13 10 -16 6 -3 10 -2 10 4 0 5 -4 13 -10 16 -5
3 -10 2 -10 -4z"/>
<path d="M4120 6845 c-1 -29 -1 -29 -17 -10 -15 19 -15 18 -9 -14 3 -18 6 -52
7 -75 1 -35 2 -37 9 -16 4 14 9 21 10 15 2 -5 6 17 10 50 4 33 3 64 -2 70 -4
5 -8 -4 -8 -20z"/>
<path d="M3426 5772 c-10 -17 -26 -62 -21 -62 7 0 37 62 32 67 -3 2 -8 0 -11
-5z"/>
<path d="M3430 5655 c0 -8 7 -15 15 -15 8 0 15 7 15 15 0 8 -7 15 -15 15 -8 0
-15 -7 -15 -15z"/>
<path d="M3851 5574 c0 -11 3 -14 6 -6 3 7 2 16 -1 19 -3 4 -6 -2 -5 -13z"/>
<path d="M5528 5133 c-10 -2 -18 -9 -18 -14 0 -13 13 -11 36 6 19 14 14 17
-18 8z"/>
<path d="M3844 5045 c-3 -8 -4 -20 -1 -27 4 -8 6 -6 6 5 1 18 12 21 71 19 29
-1 31 0 15 7 -32 15 -85 13 -91 -4z"/>
<path d="M5400 5041 c0 -11 5 -23 10 -26 6 -4 10 5 10 19 0 14 -4 26 -10 26
-5 0 -10 -9 -10 -19z"/>
<path d="M5725 5020 c10 -11 23 -20 28 -20 6 0 2 9 -8 20 -10 11 -23 20 -28
20 -6 0 -2 -9 8 -20z"/>
<path d="M3945 5021 c-3 -6 10 -7 32 -4 50 8 55 13 10 13 -20 0 -38 -4 -42 -9z"/>
<path d="M5682 5004 c10 -10 20 -16 22 -13 3 3 -5 11 -17 18 -21 13 -21 12 -5
-5z"/>
<path d="M2501 4902 c6 -17 16 -35 21 -38 15 -9 -1 37 -18 56 -13 13 -13 11
-3 -18z"/>
<path d="M2740 4910 c0 -4 7 -13 15 -20 8 -7 15 -19 15 -27 0 -7 9 -31 20 -53
11 -22 20 -51 20 -65 0 -31 18 -33 29 -3 10 28 1 63 -33 121 -23 39 -66 70
-66 47z"/>
<path d="M5316 4874 c-4 -9 -4 -19 -1 -22 2 -3 7 3 11 12 4 9 4 19 1 22 -2 3
-7 -3 -11 -12z"/>
<path d="M2699 4768 c54 -77 89 -108 120 -108 9 0 1 10 -16 23 -18 12 -46 41
-62 64 -17 23 -40 47 -52 53 -18 10 -17 6 10 -32z"/>
<path d="M5985 4636 c-47 -46 -216 -296 -201 -296 5 0 30 36 123 175 29 44 65
90 79 101 15 12 25 26 23 31 -2 5 -13 0 -24 -11z"/>
<path d="M3757 4387 c-11 -29 -9 -53 4 -40 6 6 9 21 7 34 -3 21 -4 22 -11 6z"/>
<path d="M2772 4320 c0 -14 2 -19 5 -12 2 6 2 18 0 25 -3 6 -5 1 -5 -13z"/>
<path d="M2702 4275 c-1 -33 6 -94 13 -135 l14 -75 -5 100 c-2 55 -9 116 -13
135 -8 32 -9 29 -9 -25z"/>
<path d="M4020 4118 c-12 -22 -12 -22 6 -6 10 10 15 20 12 24 -4 3 -12 -5 -18
-18z"/>
<path d="M2860 4070 c0 -5 5 -10 11 -10 5 0 7 5 4 10 -3 6 -8 10 -11 10 -2 0
-4 -4 -4 -10z"/>
<path d="M2611 4024 c-7 -26 -10 -48 -8 -50 9 -9 28 26 34 60 8 53 -12 45 -26
-10z"/>
<path d="M5955 3990 c-13 -5 -14 -9 -5 -9 8 0 24 4 35 9 13 5 14 9 5 9 -8 0
-24 -4 -35 -9z"/>
<path d="M5840 3950 c-8 -5 -10 -10 -5 -10 6 0 17 5 25 10 8 5 11 10 5 10 -5
0 -17 -5 -25 -10z"/>
<path d="M5740 3927 c-25 -6 -38 -12 -30 -14 8 -1 38 3 65 11 58 17 31 19 -35
3z"/>
<path d="M2754 3837 c4 -49 11 -98 16 -110 9 -22 9 -10 -4 137 -3 26 -8 51
-12 55 -4 3 -4 -34 0 -82z"/>
<path d="M1414 3704 c-18 -14 -18 -15 4 -4 12 6 22 13 22 15 0 8 -5 6 -26 -11z"/>
<path d="M2507 3660 c9 -11 19 -17 21 -15 6 6 -18 35 -29 35 -5 0 -1 -9 8 -20z"/>
<path d="M1125 3317 c-17 -29 -30 -59 -30 -67 0 -8 -9 -28 -21 -45 -23 -32
-38 -79 -23 -69 5 3 9 11 9 17 0 7 16 32 35 56 36 45 47 73 20 51 -8 -7 -15
-8 -15 -2 0 5 7 15 16 22 15 13 47 80 41 86 -1 2 -16 -20 -32 -49z"/>
<path d="M4840 3100 c-6 -11 -8 -20 -6 -20 3 0 10 9 16 20 6 11 8 20 6 20 -3
0 -10 -9 -16 -20z"/>
<path d="M992 3030 c0 -14 2 -19 5 -12 2 6 2 18 0 25 -3 6 -5 1 -5 -13z"/>
<path d="M4795 3009 c-4 -6 -5 -12 -2 -15 2 -3 7 2 10 11 7 17 1 20 -8 4z"/>
<path d="M2917 2909 c7 -7 15 -10 18 -7 3 3 -2 9 -12 12 -14 6 -15 5 -6 -5z"/>
<path d="M3106 2907 c8 -21 24 -23 144 -24 77 -1 93 1 60 7 -44 7 -44 7 -10
10 l35 2 -30 8 c-16 4 -46 8 -65 8 -32 0 -33 -1 -10 -9 17 -6 5 -7 -38 -3 -35
3 -70 8 -78 11 -10 3 -12 0 -8 -10z"/>
<path d="M4746 2905 c-9 -26 -7 -32 5 -12 6 10 9 21 6 23 -2 3 -7 -2 -11 -11z"/>
<path d="M3800 2898 c-25 -3 -106 -7 -180 -8 -74 -2 -148 -6 -165 -10 -19 -5
1 -7 55 -4 47 2 153 6 235 10 168 7 295 22 170 20 -38 0 -90 -4 -115 -8z"/>
<path d="M887 2801 c-4 -17 -3 -21 5 -13 5 5 8 16 6 23 -3 8 -7 3 -11 -10z"/>
<path d="M848 2725 c-14 -27 -48 -106 -76 -175 -27 -69 -66 -152 -85 -185 -19
-33 -56 -98 -83 -145 -26 -47 -67 -112 -91 -145 -42 -57 -29 -46 46 41 19 21
45 64 59 94 13 30 27 57 31 60 19 15 92 145 95 172 1 3 4 10 9 14 4 4 7 16 7
26 0 10 5 18 10 18 6 0 10 6 10 14 0 11 57 143 92 213 5 11 8 27 6 35 -3 7
-16 -9 -30 -37z"/>
<path d="M2412 2748 c-17 -17 -15 -33 5 -49 15 -13 16 -11 10 13 l-7 27 67
-20 c38 -11 88 -24 113 -29 25 -5 65 -16 89 -25 24 -8 46 -13 49 -10 3 3 0 5
-6 5 -7 0 -12 4 -12 9 0 13 82 -5 229 -53 168 -54 282 -85 276 -76 -3 4 -34
16 -69 26 -43 12 -61 21 -53 27 8 6 5 7 -7 3 -19 -6 -306 80 -316 94 -3 4 -18
8 -35 8 -16 0 -48 5 -70 11 -22 6 -65 11 -95 11 -33 0 -73 9 -99 20 -51 23
-53 24 -69 8z"/>
<path d="M1900 2730 c0 -5 9 -10 20 -10 11 0 20 5 20 10 0 6 -9 10 -20 10 -11
0 -20 -4 -20 -10z"/>
<path d="M1740 2710 c20 -13 33 -13 25 0 -3 6 -14 10 -23 10 -15 0 -15 -2 -2
-10z"/>
<path d="M4487 2694 c-18 -15 -36 -23 -47 -19 -10 3 -35 -1 -56 -9 -22 -8 -75
-24 -119 -35 -44 -11 -120 -34 -170 -51 -49 -17 -132 -35 -182 -41 -51 -5
-116 -17 -145 -25 -29 -8 -68 -19 -86 -24 -19 -4 -42 -16 -53 -26 -17 -15 -25
-16 -71 -6 -80 19 -67 7 19 -17 43 -12 100 -34 128 -48 46 -25 58 -27 157 -24
61 1 125 -3 147 -10 30 -9 53 -9 102 1 35 7 84 16 109 20 40 6 41 7 12 9 -18
0 -75 10 -125 21 -51 11 -132 22 -180 26 -74 5 -86 8 -76 20 6 8 17 14 24 14
7 0 15 7 19 15 4 10 20 15 53 15 78 0 276 41 294 62 9 10 26 18 38 18 12 0 33
11 46 24 24 24 82 40 87 24 3 -8 28 9 107 68 1 2 1 7 0 13 -2 5 -17 -2 -32
-15z m-622 -294 c60 -7 60 -7 -25 -8 -55 -1 -96 4 -115 13 -33 16 -44 17 140
-5z"/>
<path d="M1770 2675 c-10 -12 -10 -15 3 -15 23 0 47 11 47 21 0 15 -37 10 -50
-6z"/>
<path d="M4520 2616 c0 -8 5 -18 10 -21 6 -3 10 3 10 14 0 12 -4 21 -10 21 -5
0 -10 -6 -10 -14z"/>
<path d="M3208 2563 c7 -3 16 -2 19 1 4 3 -2 6 -13 5 -11 0 -14 -3 -6 -6z"/>
<path d="M1495 2535 c-22 -13 -36 -25 -31 -25 10 0 76 39 76 46 0 7 -3 5 -45
-21z"/>
<path d="M3024 2505 c8 -8 17 -15 19 -15 3 0 7 7 11 15 4 11 -2 15 -20 15 -23
0 -24 -2 -10 -15z"/>
<path d="M3310 2516 c0 -2 7 -7 16 -10 8 -3 12 -2 9 4 -6 10 -25 14 -25 6z"/>
<path d="M3445 2420 c11 -5 41 -18 68 -29 27 -12 47 -26 47 -35 0 -9 6 -16 13
-16 9 0 9 -2 0 -8 -7 -4 13 -15 50 -27 34 -10 65 -23 68 -28 16 -23 287 -55
317 -37 13 7 5 9 -30 10 -27 0 -48 5 -48 10 0 6 -6 10 -14 10 -8 0 -21 7 -29
15 -23 22 -95 57 -106 51 -5 -4 -34 4 -64 18 -30 13 -74 27 -98 31 -24 4 -75
16 -114 26 -74 20 -92 23 -60 9z m321 -125 c18 -13 18 -14 1 -15 -10 0 -25 7
-33 15 -21 21 5 21 32 0z"/>
<path d="M849 2323 c-13 -16 -12 -17 4 -4 9 7 17 15 17 17 0 8 -8 3 -21 -13z"/>
<path d="M3325 2314 c60 -23 75 -27 75 -20 0 9 -70 36 -94 36 -14 -1 -7 -6 19
-16z"/>
<path d="M4561 2311 c-10 -6 -10 -10 -1 -16 6 -4 9 -13 6 -21 -3 -8 -2 -14 3
-14 11 0 21 49 12 55 -4 2 -13 0 -20 -4z"/>
<path d="M4505 2279 c-8 -34 1 -51 15 -29 12 19 13 60 1 60 -5 0 -12 -14 -16
-31z"/>
<path d="M3074 2265 c36 -19 52 -19 36 0 -7 8 -24 15 -39 15 l-26 0 29 -15z"/>
<path d="M3408 2263 c12 -2 30 -2 40 0 9 3 -1 5 -23 4 -22 0 -30 -2 -17 -4z"/>
<path d="M3120 2239 c-10 -6 0 -9 34 -9 54 0 57 4 11 13 -17 3 -37 2 -45 -4z"/>
<path d="M3233 2243 c9 -2 25 -2 35 0 9 3 1 5 -18 5 -19 0 -27 -2 -17 -5z"/>
<path d="M4752 2224 c-10 -12 -10 -14 2 -14 17 0 30 16 19 23 -5 3 -14 -1 -21
-9z"/>
<path d="M4750 2190 c0 -5 5 -10 10 -10 6 0 10 5 10 10 0 6 -4 10 -10 10 -5 0
-10 -4 -10 -10z"/>
<path d="M3854 1993 c3 -10 8 -30 12 -45 3 -16 10 -28 14 -28 8 0 -2 49 -15
70 -3 5 -1 10 4 10 6 0 11 -1 11 -2 0 -2 7 -21 15 -43 10 -27 14 -33 15 -18 0
35 -21 73 -42 73 -14 0 -18 -5 -14 -17z"/>
<path d="M3794 1959 c-3 -6 -1 -16 5 -22 8 -8 11 -5 11 11 0 24 -5 28 -16 11z"/>
<path d="M1821 1947 c2 -1 13 -9 24 -17 19 -14 19 -14 6 3 -7 9 -18 17 -24 17
-6 0 -8 -1 -6 -3z"/>
<path d="M3876 1903 c-3 -3 0 -13 7 -21 10 -13 9 -15 -5 -9 -18 7 -25 -7 -9
-17 17 -11 39 5 34 25 -6 22 -17 31 -27 22z"/>
<path d="M230 1815 c-50 -12 -52 -13 -19 -14 20 -1 52 6 70 14 40 17 24 17
-51 0z"/>
<path d="M269 1745 c-7 -78 3 -92 15 -22 4 23 3 37 -4 37 -5 0 -11 -7 -11 -15z"/>
<path d="M4975 1711 c-47 -6 -48 -7 -25 -17 43 -19 93 -34 98 -29 2 2 -3 11
-12 20 -9 9 -14 21 -11 26 4 5 5 8 3 7 -2 0 -25 -4 -53 -7z"/>
<path d="M2525 1630 c-11 -5 -15 -9 -9 -9 7 -1 11 -9 10 -18 -1 -12 6 -18 19
-18 14 0 20 7 20 24 0 28 -11 33 -40 21z"/>
<path d="M2460 1590 c-9 -16 -8 -18 5 -14 8 4 15 12 15 20 0 20 -7 17 -20 -6z"/>
<path d="M4558 1593 c7 -3 16 -2 19 1 4 3 -2 6 -13 5 -11 0 -14 -3 -6 -6z"/>
<path d="M233 1474 c-18 -83 -15 -123 3 -49 8 33 13 71 12 85 -2 16 -8 3 -15
-36z"/>
<path d="M400 1405 c-7 -8 -8 -15 -2 -15 5 0 15 7 22 15 7 8 8 15 2 15 -5 0
-15 -7 -22 -15z"/>
<path d="M275 1369 c-40 -10 -63 -24 -53 -34 3 -3 30 5 59 19 58 26 57 29 -6
15z"/>
<path d="M361 1346 c-6 -8 -25 -19 -42 -26 -16 -7 -28 -15 -25 -17 6 -7 60 23
75 41 8 9 11 16 8 16 -2 0 -10 -6 -16 -14z"/>
<path d="M10 1291 c-5 -11 -9 -44 -9 -73 1 -53 2 -53 8 -13 4 22 11 55 15 73
8 36 2 42 -14 13z"/>
<path d="M53 1235 c-41 -17 -41 -27 -3 -42 22 -8 39 -8 63 -1 17 6 38 13 45
14 7 2 10 8 7 14 -4 7 -12 7 -25 0 -10 -5 -26 -10 -36 -10 -16 0 -16 1 1 20
17 19 17 20 -1 20 -10 -1 -34 -7 -51 -15z"/>
<path d="M75 1160 c-3 -5 -1 -10 4 -10 6 0 11 5 11 10 0 6 -2 10 -4 10 -3 0
-8 -4 -11 -10z"/>
<path d="M3890 1130 c-11 -7 -8 -10 15 -9 17 0 39 4 50 9 16 7 14 9 -15 9 -19
0 -42 -4 -50 -9z"/>
<path d="M2743 1053 c9 -2 23 -2 30 0 6 3 -1 5 -18 5 -16 0 -22 -2 -12 -5z"/>
<path d="M4082 928 c2 -6 21 -16 42 -22 21 -6 34 -14 30 -18 -4 -5 6 -8 22 -7
25 0 26 2 9 8 -11 5 30 7 93 6 62 -1 115 1 117 6 8 12 -22 16 -139 19 -60 1
-120 6 -133 11 -33 12 -45 11 -41 -3z"/>
<path d="M3798 880 c-3 -17 -2 -32 1 -34 3 -1 38 0 76 3 l70 6 -35 17 c-19 9
-44 18 -55 21 -11 3 -27 8 -36 11 -13 6 -18 0 -21 -24z"/>
<path d="M3986 897 c2 -7 21 -20 42 -28 57 -22 60 -22 20 1 -21 11 -38 25 -38
30 0 6 -7 10 -15 10 -8 0 -12 -6 -9 -13z"/>
<path d="M3571 849 c6 -12 7 -19 1 -16 -5 4 -18 0 -28 -7 -18 -14 -18 -15 9
-40 28 -26 57 -34 57 -16 0 6 8 10 18 10 13 1 12 3 -6 14 -21 11 -22 14 -8 25
17 14 22 36 7 26 -5 -3 -16 2 -24 10 -24 23 -40 19 -26 -6z"/>
<path d="M0 737 c0 -24 2 -25 30 -14 36 14 34 31 -3 35 -23 3 -27 0 -27 -21z"/>
<path d="M3755 675 c-5 -2 -23 -6 -38 -9 -15 -4 -25 -11 -22 -16 3 -6 2 -10
-4 -10 -16 0 -25 -42 -10 -50 13 -9 78 -2 94 10 6 4 34 11 63 15 28 4 52 10
52 14 0 20 -105 56 -135 46z"/>
<path d="M4066 661 c-3 -5 23 -21 58 -37 67 -29 76 -44 27 -44 -16 0 -36 -10
-48 -22 -18 -20 -20 -33 -17 -92 4 -60 2 -71 -16 -83 -11 -8 -20 -19 -20 -24
0 -6 -9 -22 -20 -36 -11 -14 -20 -32 -20 -40 0 -19 51 -94 61 -88 4 3 11 -5
15 -17 10 -32 56 -88 73 -88 10 0 12 10 6 46 -11 74 39 319 73 357 16 18 17
18 24 -5 7 -21 7 -20 4 4 -4 32 6 43 54 56 l35 9 -57 17 c-55 17 -77 31 -64
43 3 3 19 0 36 -7 16 -7 49 -12 72 -12 26 1 57 -7 76 -19 21 -12 32 -15 30 -7
-7 22 -99 66 -170 83 -73 16 -204 20 -212 6z m174 -117 c0 -8 -4 -12 -10 -9
-5 3 -10 10 -10 16 0 5 5 9 10 9 6 0 10 -7 10 -16z m-54 -121 l-16 -28 6 30
c8 38 17 52 21 38 3 -7 -3 -24 -11 -40z"/>
<path d="M5846 601 c-19 -7 -19 -8 -1 -15 15 -6 17 -9 6 -15 -11 -7 -11 -14 3
-41 9 -18 16 -45 17 -59 0 -14 4 -35 9 -46 6 -13 9 11 9 71 1 97 -8 118 -43
105z"/>
<path d="M4271 444 c0 -11 3 -14 6 -6 3 7 2 16 -1 19 -3 4 -6 -2 -5 -13z"/>
<path d="M4265 300 c-4 -12 -5 -24 -2 -27 3 -2 8 5 12 17 4 12 5 24 2 27 -3 2
-8 -5 -12 -17z"/>
<path d="M5184 282 c2 -4 -14 -8 -37 -8 -74 -1 -192 -21 -224 -38 -18 -9 -40
-16 -50 -16 -29 -1 -55 -20 -164 -122 l-104 -98 62 0 c52 0 63 3 68 19 11 37
120 136 193 177 40 22 69 44 65 49 -5 4 -2 5 4 1 22 -12 133 -27 146 -19 7 5
-1 10 -23 14 l-35 6 43 2 c24 0 52 6 63 11 15 9 28 6 58 -11 21 -11 46 -19 56
-18 27 6 -60 59 -96 59 -17 0 -28 -3 -25 -8z"/>
<path d="M5830 249 c-31 -6 -30 -6 18 -8 28 0 52 1 52 3 0 8 -37 11 -70 5z"/>
<path d="M5178 233 c6 -2 18 -2 25 0 6 3 1 5 -13 5 -14 0 -19 -2 -12 -5z"/>
<path d="M5838 213 c6 -2 18 -2 25 0 6 3 1 5 -13 5 -14 0 -19 -2 -12 -5z"/>
<path d="M4213 188 c-23 -30 -24 -41 -2 -21 12 12 20 25 17 28 -3 3 -10 0 -15
-7z"/>
<path d="M5890 130 c0 -5 7 -10 16 -10 8 0 12 5 9 10 -3 6 -10 10 -16 10 -5 0
-9 -4 -9 -10z"/>
<path d="M925 79 c-46 -19 -92 -50 -54 -36 9 3 38 9 65 13 43 6 74 22 74 38 0
11 -35 5 -85 -15z"/>
<path d="M1646 76 c-11 -13 -17 -26 -15 -29 2 -2 -5 -14 -15 -26 -11 -12 -15
-21 -10 -21 9 1 24 19 58 73 22 33 9 35 -18 3z"/>
<path d="M5826 45 c4 -8 1 -15 -5 -15 -6 0 -11 -7 -11 -15 0 -9 9 -15 25 -15
28 0 34 23 11 46 -19 18 -27 18 -20 -1z"/>
<path d="M4216 17 c3 -10 9 -15 12 -12 3 3 0 11 -7 18 -10 9 -11 8 -5 -6z"/>
</g>
</svg>
